<svg xmlns="http://www.w3.org/2000/svg" width="80" height="80" viewBox="0 0 80 80"><path fill="#FF4B00" d="M40.03 80c-1.172 0-2.315-.16-3.46-.26-1.164-.1-2.3-.236-3.435-.436-1.15-.203-2.394.022-3.508-.277-1.126-.303-2.167-.916-3.25-1.313-1.094-.4-2.236-.71-3.282-1.2-1.053-.494-2.028-1.162-3.03-1.744-1.004-.584-1.888-1.356-2.836-2.023-.95-.67-2.01-1.2-2.895-1.948-.888-.75-1.558-1.738-2.377-2.56-.82-.822-1.81-1.49-2.555-2.38-.745-.89-1.372-1.883-2.04-2.836-.665-.95-1.22-1.974-1.802-2.982-.58-1.004-1.03-2.07-1.524-3.125-.49-1.05-.886-2.128-1.285-3.224-.395-1.087-.785-2.168-1.087-3.297-.3-1.117-.496-2.248-.698-3.4-.2-1.138-.85-2.23-.952-3.398-.1-1.15.472-2.337.472-3.51s-.533-2.36-.433-3.51c.1-1.167.477-2.304.676-3.442.202-1.153.36-2.318.658-3.434.302-1.13.826-2.188 1.222-3.275.4-1.097.616-2.274 1.106-3.324.493-1.056 1.165-2.03 1.745-3.034.582-1.01 1.09-2.08 1.755-3.03.667-.952 1.583-1.723 2.328-2.612.746-.89 1.7-1.572 2.52-2.394.82-.822 1.628-1.626 2.516-2.374.886-.748 1.46-1.915 2.41-2.584.946-.667 2.02-1.182 3.026-1.766 1-.582 2.204-.782 3.257-1.276C24.32 3.544 25.337 3 26.43 2.6c1.084-.397 2.088-1.098 3.214-1.4 1.113-.3 2.273-.53 3.422-.732 1.134-.2 2.326-.116 3.49-.217C37.7.15 38.86.247 40.03.247c1.172 0 2.35-.324 3.496-.224 1.164.1 2.267.645 3.4.845 1.15.203 2.284.392 3.397.69 1.126.304 2.167.806 3.252 1.203 1.093.4 2.184.752 3.23 1.243 1.054.494 2.263.692 3.264 1.273 1.004.584 1.864 1.412 2.812 2.08.95.668 1.975 1.25 2.862 1.998.888.75 1.646 1.65 2.466 2.473s1.43 1.826 2.177 2.717c.745.89 1.788 1.552 2.455 2.505.665.95 1.05 2.09 1.63 3.098.58 1.004 1.28 1.95 1.772 3.007.49 1.05 1.017 2.103 1.416 3.2.396 1.086.747 2.21 1.05 3.34.298 1.117.6 2.258.803 3.41.2 1.138.062 2.336.163 3.504.1 1.148-.094 2.304-.094 3.478s.506 2.358.406 3.506c-.1 1.168-.82 2.243-1.02 3.38-.2 1.153-.255 2.312-.553 3.428-.302 1.13-.217 2.385-.613 3.473-.4 1.097-1.307 1.986-1.797 3.036-.493 1.057-.908 2.142-1.488 3.146-.583 1.008-1.424 1.832-2.09 2.783-.666.952-1.1 2.072-1.844 2.96-.746.892-1.33 1.956-2.15 2.778s-1.945 1.33-2.833 2.077c-.887.748-1.957 1.233-2.907 1.902-.947.667-1.79 1.47-2.794 2.054-1.003.58-1.847 1.49-2.9 1.985-1.046.49-2.292.536-3.385.936-1.084.398-2.21.63-3.335.932-1.113.3-2.126 1.1-3.275 1.304-1.134.2-2.36-.235-3.526-.133-1.146.1-2.28.367-3.45.367zm0-78.02c-1.18 0-2.364-.053-3.517.053-1.172.108-2.344.286-3.483.5-1.156.215-2.174.96-3.29 1.278-1.13.324-2.305.437-3.39.86-1.092.425-2.086 1.037-3.127 1.56-1.047.525-2.123.97-3.113 1.587-.994.62-2.055 1.142-2.985 1.848-.932.708-1.686 1.63-2.548 2.42-.863.79-1.883 1.424-2.67 2.29-.787.865-1.32 1.945-2.025 2.88-.704.933-1.45 1.832-2.067 2.83-.615.992-1.258 1.975-1.782 3.026-.52 1.045-1.082 2.088-1.506 3.184-.42 1.087-.843 2.198-1.165 3.33-.318 1.12-.544 2.287-.76 3.445-.212 1.142-.426 2.312-.534 3.488-.106 1.156.344 2.345.344 3.528s-.567 2.383-.46 3.54c.107 1.175.847 2.258 1.06 3.4.214 1.16.26 2.337.58 3.457.32 1.132.784 2.204 1.205 3.29.425 1.097.73 2.238 1.252 3.282.522 1.05 1.307 1.945 1.922 2.937.617.997 1.153 2.035 1.856 2.967.705.934 1.558 1.73 2.345 2.596.787.865 1.427 1.87 2.29 2.66.862.79 1.616 1.738 2.548 2.445.93.707 1.94 1.348 2.933 1.967.99.617 2.286.686 3.333 1.21 1.04.523 2.028 1.123 3.12 1.55 1.085.42 2.072 1.157 3.2 1.48 1.117.32 2.293.485 3.448.7 1.14.214 2.34.014 3.51.122 1.153.105 2.296.186 3.475.186 1.18 0 2.345.185 3.498.08 1.172-.11 2.356-.128 3.495-.34 1.156-.217 2.203-.85 3.32-1.17 1.13-.322 2.36-.32 3.442-.743 1.093-.426 2.147-.963 3.188-1.485 1.047-.525 2.16-.963 3.15-1.58.995-.62 1.92-1.373 2.85-2.08.932-.707 1.58-1.753 2.444-2.542.863-.79 1.846-1.447 2.633-2.313.787-.865 1.403-1.867 2.108-2.8.704-.934 1.486-1.808 2.103-2.805.616-.993 1.39-1.913 1.913-2.964.52-1.044.607-2.29 1.032-3.384.42-1.087 1.066-2.1 1.388-3.232.318-1.12.41-2.3.625-3.46.213-1.143.29-2.303.397-3.48.106-1.155.162-2.31.162-3.492s-.103-2.333-.21-3.49c-.107-1.175.022-2.37-.19-3.512-.216-1.16-.252-2.373-.57-3.493-.322-1.13-1.223-2.068-1.644-3.155-.425-1.096-.377-2.404-.897-3.448-.524-1.05-1.278-1.995-1.893-2.988-.617-.998-1.653-1.695-2.356-2.628-.705-.935-1.066-2.15-1.852-3.014-.787-.865-1.715-1.606-2.577-2.396-.862-.79-1.603-1.754-2.534-2.46-.93-.707-2.094-1.098-3.088-1.718-.99-.617-2.135-.93-3.183-1.454-1.04-.522-1.94-1.35-3.033-1.774-1.084-.422-2.123-1.058-3.252-1.38-1.116-.32-2.324-.377-3.48-.593-1.14-.213-2.345.035-3.517-.073-1.152-.106-2.29-.53-3.47-.53z"/><path fill="#FF4B00" d="M40.647 52.135c-1.244 0-2.496.378-3.674.154-1.214-.232-2.353-.76-3.475-1.205-1.142-.454-2.082-1.25-3.106-1.902-1.032-.66-2.32-.993-3.207-1.83-.888-.837-1.618-1.875-2.337-2.866-.715-.985-1.177-2.142-1.7-3.254-.516-1.097-1.093-2.395-1.4-3.592-.402 1.562-.543 3.368-.543 5.055 0 1.156-.166 2.334.027 3.435.198 1.132 1.008 2.09 1.39 3.146.39 1.074.52 2.255 1.083 3.23.57.987 1.543 1.672 2.27 2.54.728.868 1.15 2.05 2.016 2.78.865.728 2.047 1.03 3.03 1.6.974.564 1.8 1.506 2.87 1.897 1.052.384 2.275.265 3.403.463 1.097.193 2.205.5 3.357.5s2.28-.188 3.378-.38c1.128-.2 2.247-.428 3.3-.812 1.07-.39 2.087-.916 3.06-1.48.984-.57 2.078-1.035 2.942-1.763.867-.73 1.346-1.87 2.074-2.74.726-.866 1.556-1.656 2.124-2.642.563-.976 1.06-2.008 1.45-3.082.383-1.055.34-2.222.538-3.354.192-1.1.917-2.182.917-3.338 0-1.687-.493-3.476-.894-5.038-.31 1.197-.954 2.442-1.47 3.54-.525 1.11-1.16 2.12-1.875 3.107-.72.99-1.57 1.813-2.46 2.65-.886.838-1.57 1.936-2.6 2.594-1.024.653-2.117 1.283-3.258 1.737-1.122.446-2.38.558-3.595.79-1.18.223-2.39.06-3.635.06z" opacity=".2"/><path fill="#FF4B00" d="M50.206 36.005c0 .73.777.99 1.505.99s1.05-.26 1.05-.99-.322-1.175-1.05-1.175c-.727 0-1.527.446-1.527 1.175M28.835 35.91c0 .73.32 1.027 1.05 1.027s1.078-.297 1.078-1.027-.35-1.646-1.08-1.646-1.084.917-1.084 1.646"/><path fill="#FF4B00" d="M32.854 41.56c-.075 1.074-1.9 1.444-4.046 1.21s-4.037-1.002-3.96-2.076c.074-1.073 2.074-1.936 4.22-1.7s3.862 1.494 3.786 2.567zM56.338 40.82c.075 1.072-1.398 1.875-3.545 2.11-2.147.234-3.698-.22-3.774-1.294-.076-1.073 1.394-1.99 3.54-2.226 2.147-.234 3.703.336 3.778 1.41z" opacity=".2"/><path fill="#FF4B00" d="M40.646 44.76c-.937 0-1.867.083-2.768-.16-.898-.244-1.753-.626-2.566-1.1-.465-.27-.587-.81-.318-1.277.27-.467.883-.777 1.347-.505.89.515 1.773 1.074 2.772 1.246 1.003.173 2.063.155 3.067-.018.997-.172 1.793-.87 2.68-1.386.464-.272 1.46.03 1.73.495.27.466-.11 1.233-.575 1.503-.813.473-1.632 1.056-2.53 1.3-.902.243-1.902-.097-2.84-.097zM64.084 39.767c0-1.077-.716-1.874-1.42-2.58-.51-.51-1.07-.936-1.745-1.137-.225-1.138-.744-2.2-1.133-3.268-.41-1.127-1.005-2.146-1.597-3.17-.597-1.035-1.006-2.21-1.768-3.12-.764-.912-1.928-1.424-2.837-2.19-.282-.238-.562-.474-.844-.707.03-.172.006-.36-.102-.562-.862-1.613-1.47-1.18-2.762-2.474-.86-.864-.28-.378-1.57-1.673-.34-.342-1.02-1.256-2.308-2.548-1.288-1.293-1.203-1.667-1.955-1.953-.91-.346-1.98.52-1.54 1.388.532 1.046.782.707 2.072 2 1.29 1.295.76.987 1.333 1.604.233.25.432.425.605.588-.754-.208-1.522-.387-2.295-.524-.137-.024-.277-.023-.416-.035-.352-.49.024-.246-.772-1.045-1.065-1.07-1.74-1.323-2.642-2.003-.832-.626-.875-1.535-1.674-1.886-.89-.39-1.892.454-1.496 1.345.532 1.2 1.302.954 2.036 1.69 1.25 1.252 1.04 1.694 1.35 2.008-.658-.004-1.317-.092-1.968-.144-.48-.313-.355-.524-1.12-1.29l-1.288-1.293c-.626-.627-.638-.935-1.607-1.278-.916-.325-1.45-.066-1.45.91 0 .835.74 1.455 1.44 1.784.552.26.56.24 1.29.973.15.148.276.278.393.398-.906.238-1.785.584-2.647.9-1.123.41-2.303.76-3.325 1.354-1.03.6-2.054 1.29-2.962 2.055-.91.767-1.558 1.834-2.323 2.746-.762.91-1.546 1.823-2.144 2.857-.592 1.025-1.227 2.074-1.638 3.2-.4 1.102-.616 2.302-.824 3.483-.817.027-1.6.147-2.135.685-.704.706-.922 1.834-.922 2.91s.354 2.072 1.057 2.778c.62.623 1.47 1.033 2.397 1.126.187 1.05.386 2.072.746 3.06.41 1.126.834 2.23 1.426 3.254.598 1.034 1.46 1.852 2.224 2.762.764.912 1.3 2.048 2.21 2.815.908.765 2.035 1.24 3.066 1.838 1.022.595 2.06 1.153 3.183 1.564 1.104.405 2.193.998 3.377 1.206 1.152.203 2.378.4 3.587.4s2.403-.372 3.555-.575c1.183-.21 2.215-.87 3.32-1.274 1.122-.41 2.192-.823 3.214-1.417 1.03-.6 1.92-1.327 2.826-2.092.91-.766 1.926-1.393 2.69-2.306.762-.91 1.688-1.74 2.286-2.774.592-1.025.882-2.23 1.292-3.358.34-.932.657-1.888.875-2.875.794-.247 1.46-.917 2.024-1.483.707-.707 1.357-1.57 1.357-2.647zm-5.498 3.58c-.238 1.203-.154 2.51-.613 3.617-.467 1.127-1.17 2.177-1.84 3.18-.675 1.01-1.724 1.713-2.578 2.57s-1.728 1.65-2.735 2.325c-1 .67-1.89 1.59-3.015 2.06-1.105.46-2.39.407-3.592.647-1.166.232-2.333.5-3.566.5s-2.392-.305-3.558-.537c-1.202-.24-2.306-.605-3.41-1.066-1.125-.468-2.312-.774-3.312-1.446-1.007-.677-1.865-1.537-2.72-2.394-.853-.856-1.504-1.857-2.18-2.866-.67-1.002-1.323-1.995-1.79-3.122-.46-1.11-.912-2.23-1.15-3.434-.23-1.17-.583-2.378-.583-3.615s.227-2.47.46-3.64c.237-1.203.677-2.357 1.137-3.465.467-1.127.848-2.338 1.518-3.34.675-1.01 1.78-1.69 2.633-2.547.854-.857 1.623-1.83 2.63-2.507.998-.672 2.11-1.2 3.235-1.67 1.105-.46 2.33-.537 3.53-.776.39-.078.782-.127 1.173-.166l.16.162c1.29 1.292.73 2.193 2.474 2.724.93.284 1.837-.42 1.35-1.41-.44-.89-.73-1.246-1.106-1.59.617-.025 1.227-.07 1.828-.077.14.127.293.27.468.446 1.288 1.293.817 2.12 2.56 2.65.93.285 1.693-.353 1.203-1.355-.14-.286-.263-.5-.38-.687.267.124.534.246.805.36 1.123.468 2.288.813 3.287 1.484 1.006.677 1.89 1.503 2.745 2.36.854.856 1.726 1.71 2.4 2.72.67 1.002 1.01 2.185 1.477 3.312.46 1.108 1.046 2.185 1.284 3.39.232 1.17.46 2.387.46 3.624 0 1.236-.46 2.41-.69 3.578z"/><path fill="#FF4B00" d="M40.646 33.912c-1.33 0-.707 1.46-1.39 2.604-.684 1.143-1.784 1.01-1.1 2.153.703 1.175 1.123.373 2.49.373s1.972.913 2.676-.263c.684-1.143-1.08-.93-1.447-2.21-.446-1.554.1-2.658-1.23-2.658z" opacity=".2"/><g fill="#FF4B00"><path d="M10.874 55.87l-1.638-3.49c-.148-.318-.02-.73.34-.9.21-.098.463-.096.67.018 2.722 1.472 3.722 1.887 4.428 1.556.524-.246.562-.85.33-1.347-.226-.48-.557-.832-.953-1.065-.136-.08-.228-.18-.29-.316-.14-.298-.01-.68.315-.832.09-.042.193-.058.3-.042.598.073 1.398.935 1.755 1.694.603 1.285.358 2.646-.846 3.21-1.03.484-2.326.054-4.2-.977l.92 1.962c.14.3.007.67-.292.81-.327.153-.7.018-.838-.28zM14.557 58.142l-.817-1.21c-.163-.24-.1-.573.158-.747.24-.162.574-.098.736.143l.817 1.21c.163.24.1.573-.142.735-.256.174-.59.11-.75-.13zM15.84 62.846c-1.385-1.487-.822-3.174.555-4.456 1.48-1.378 3.305-1.518 4.648-.075.443.477.877 1.22.726 1.704-.032.083-.078.166-.15.234-.28.26-.687.174-.898-.053-.068-.072-.12-.16-.146-.26-.075-.27-.222-.518-.454-.767-.668-.718-1.747-.657-2.523.066-.037.033-.066.06-.097.102.54-.08 1.3.13 1.797.666.818.88.998 2.174-.042 3.143-.954.888-2.38.81-3.418-.304zm2.285-2.306c-.34-.366-.837-.56-1.348-.522-.428.48-.702 1.23-.068 1.91.524.563 1.185.523 1.528.203.513-.476.323-1.12-.113-1.59zM28.778 65.19l-3.158 1.64-1.036 1.814c-.188.33-.625.45-.973.25-.33-.187-.448-.624-.26-.954l1.037-1.814-.205-3.572c-.012-.12.02-.24.08-.345.16-.278.566-.427.914-.23.19.11.336.32.345.567l.108 2.836 2.467-1.354c.217-.12.467-.114.676.005.356.203.433.615.27.9-.06.105-.146.194-.262.255zM31.894 72.23l-3.214-1.014c-.42-.132-.655-.583-.522-1.003l1.523-4.835c.134-.42.585-.655 1.005-.522L33.9 65.87c.313.1.496.45.392.783-.103.324-.454.507-.77.408l-2.62-.826-.425 1.345 2.556.805c.314.1.497.45.393.784-.103.323-.454.506-.77.407l-2.555-.806-.453 1.44 2.623.827c.314.1.497.45.397.766-.107.343-.458.525-.773.427zM39.535 73.323c-.3-.026-.562-.23-.647-.527l-.198-.74-2.85-.244-.33.694c-.135.28-.43.436-.738.408-.448-.038-.715-.442-.682-.82.008-.09.025-.18.072-.266l2.37-4.825c.21-.434.684-.694 1.15-.654.513.003.995.346 1.143.85l1.505 5.158c.022.092.034.184.027.273-.032.368-.364.732-.822.693zm-1.918-5.495l-1.28 2.77 2.07.18-.79-2.95zM45.684 70.146l1.13 1.415c.075.102.122.217.137.325.05.337-.178.732-.594.792-.247.035-.493-.062-.654-.27l-1.42-1.89-1.03.145.243 1.713c.054.376-.22.738-.614.794-.376.053-.737-.22-.79-.596l-.735-5.18c-.062-.436.245-.842.68-.904l2.298-.325c1.377-.195 2.347.587 2.52 1.814.165 1.17-.48 1.896-1.17 2.166zm-2.86-2.504l.253 1.782 1.476-.21c.564-.08.942-.477.864-1.03-.08-.555-.553-.83-1.117-.75l-1.476.208zM55.14 69.668c-1.787.917-3.752.307-4.67-1.48s-.266-3.74 1.522-4.658c1.797-.922 3.762-.312 4.68 1.477s.266 3.74-1.53 4.66zM52.57 64.65c-1.095.563-1.368 1.76-.798 2.87.565 1.104 1.702 1.59 2.796 1.027 1.095-.562 1.373-1.77.807-2.874-.57-1.112-1.71-1.584-2.805-1.022zM62.543 64.4l-2.22 1.852c-.336.282-.844.236-1.125-.102l-3.352-4.014c-.244-.292-.203-.742.104-1 .292-.242.742-.202.986.09l3.062 3.67 1.743-1.456c.254-.212.648-.176.86.077.232.276.195.67-.057.882zM65.938 60.674l-1.126 1.444c-.27.347-.775.41-1.123.14l-4-3.118c-.348-.27-.41-.776-.14-1.123l1.126-1.444c1.285-1.648 3.226-1.975 4.812-.738 1.585 1.235 1.735 3.19.45 4.84zm-4.276-3.333l-.744.956 3.29 2.564.744-.955c.812-1.04.536-2.232-.355-2.928-.932-.725-2.093-.716-2.935.364zM70.163 54.073c-.41.88-1.207 1.83-1.862 1.935-.12.02-.245.006-.353-.044-.345-.16-.46-.578-.315-.887.055-.118.142-.232.26-.298.472-.278.903-.706 1.178-1.295.33-.707.164-1.203-.18-1.364-1.07-.498-1.96 3.325-4.234 2.265-1.006-.47-1.434-1.73-.77-3.15.32-.69 1.037-1.636 1.638-1.764.125-.03.25-.015.36.036.344.16.423.605.28.914-.052.108-.13.204-.244.283-.43.308-.76.728-.966 1.172-.258.553-.157.976.206 1.145.96.448 1.936-3.323 4.192-2.27 1.106.513 1.57 1.69.81 3.323z"/></g><g fill="#FF4B00"><path d="M15.276 24.713l-.866 1.463 1.488.882c.327.193.44.632.236.977-.194.327-.633.44-.96.245l-4.5-2.665c-.38-.225-.506-.718-.28-1.097l1.182-1.996c.738-1.248 1.984-1.43 2.99-.832 1 .59 1.444 1.784.71 3.023zm-2.722-1.39l-.77 1.3 1.55.917.77-1.3c.285-.48.197-1.02-.275-1.302-.484-.285-.99-.098-1.276.385zM21.683 20.512l-2.288 2.474c-.3.322-.808.343-1.13.044l-3.722-3.443c-.322-.298-.343-.807-.044-1.13l2.287-2.474c.225-.242.62-.258.877-.02.25.23.265.626.04.868l-1.866 2.02 1.034.958 1.82-1.968c.224-.242.62-.257.877-.02.248.23.264.626.04.87l-1.82 1.966 1.108 1.025 1.867-2.018c.224-.242.62-.258.862-.034.265.246.28.642.056.884zM24.38 15.273l1.647.752c.112.056.205.137.27.227.193.28.17.734-.175.975-.204.143-.468.168-.705.054l-2.12-1.043-.85.596.988 1.417c.218.312.14.757-.19.985-.31.218-.756.14-.973-.173l-2.993-4.285c-.252-.36-.163-.86.197-1.113l1.9-1.327c1.14-.796 2.356-.536 3.066.48.677.965.43 1.904-.062 2.456zm-3.68-.94l1.03 1.474 1.222-.853c.468-.326.625-.85.305-1.31s-.867-.492-1.334-.166l-1.222.854zM29.503 9.603l-2.54 1.057.543 1.302 2.475-1.03c.306-.127.672.024.806.347.13.313-.02.68-.324.807l-2.475 1.03.815 1.957c.146.35-.026.77-.396.923-.35.146-.77-.026-.915-.377l-2.01-4.83c-.17-.406.024-.877.43-1.046l3.112-1.296c.304-.127.67.023.805.347.13.315-.02.68-.324.808zM36.846 13.45l-3.312.63c-.433.084-.854-.202-.937-.635l-.95-4.982c-.084-.432.202-.854.635-.936l3.312-.633c.324-.062.652.16.718.505.064.333-.158.66-.482.723l-2.703.516.265 1.385 2.634-.503c.324-.062.652.16.718.505.063.334-.16.662-.483.724l-2.632.504.283 1.483 2.703-.516c.324-.06.652.16.714.486.066.353-.157.68-.48.743zM43.957 7.757c.087.113.132.265.128.395-.012.36-.33.63-.7.618-.19-.007-.377-.093-.513-.247-.366-.412-.85-.667-1.35-.684-1.208-.04-2.117.86-2.158 2.12-.04 1.26.81 2.218 2.02 2.257.5.016 1.006-.188 1.39-.586.145-.145.347-.218.547-.212.36.012.642.3.63.64-.004.142-.05.28-.152.387-.52.594-1.305 1.068-2.454 1.03-2-.062-3.503-1.512-3.438-3.56s1.66-3.4 3.66-3.335c1.147.036 1.9.55 2.39 1.177zM50.252 9.49l-1.345-.352-1.208 4.615c-.1.377-.49.605-.878.504-.377-.1-.605-.49-.507-.866l1.208-4.614-1.345-.352c-.33-.086-.528-.428-.438-.776.084-.32.426-.52.754-.433l4.073 1.066c.32.084.52.426.43.765-.084.33-.426.53-.745.446zM58.533 13.676l-2.345-1.44-.738 1.203 2.286 1.402c.28.172.373.558.19.856-.178.29-.563.382-.845.21l-2.285-1.403-1.11 1.81c-.198.323-.64.43-.98.22-.323-.2-.43-.64-.23-.964l2.737-4.46c.23-.376.727-.494 1.102-.264l2.874 1.764c.282.173.374.558.19.856-.178.29-.563.382-.845.21zM58.863 21.243c-1.42-1.42-1.44-3.476-.02-4.896s3.475-1.398 4.895.02c1.428 1.428 1.448 3.483.028 4.903-1.42 1.422-3.476 1.4-4.903-.027zm3.984-3.984c-.87-.87-2.09-.764-2.975.12-.876.875-.99 2.104-.12 2.974s2.105.763 2.98-.113c.885-.882.984-2.112.115-2.98zM65.89 26.24l-.867 1.59c-.063.107-.15.194-.246.25-.292.175-.745.12-.96-.24-.128-.216-.135-.48-.004-.71l1.194-2.04-.533-.894-1.486.887c-.326.194-.766.084-.97-.26-.195-.326-.085-.766.24-.96l4.494-2.682c.378-.225.872-.1 1.098.278l1.19 1.992c.712 1.194.365 2.392-.7 3.027-1.012.605-1.933.293-2.45-.238zm1.204-3.61l-1.547.924.765 1.28c.292.49.805.685 1.285.397.48-.286.553-.83.26-1.32l-.763-1.28z"/></g></svg>