<svg xmlns="http://www.w3.org/2000/svg" width="107" height="91" viewBox="0 0 107 91"><path fill="#FF4B00" d="M102.4.2c-.7-.1-1.5-.1-2.3-.1-.8 0-1.7 0-2.7.1-1.1.1-3.2.3-5.9.6l-.6.1-.7.1c-.5.1-.9.2-1.4.2-1 .2-1.9.3-2.9.5-2 .3-4 .8-6 1.3-1 .2-2 .5-3.1.7l-3 .9-3 1c-1 .3-2 .7-3 1.1-7.9 3-14.9 7-19.8 10.4-1.2.9-2.3 1.7-3.2 2.4-1 .7-1.8 1.3-2.4 1.9-1.3 1.1-2 1.7-2 1.7s-3 2.4-7 6.8c-4.1 4.3-9.1 10.6-13.3 17.8-4.4 7.2-8 15.2-10.4 22.3-.3.9-.6 1.7-.9 2.6-.1.4-.3.8-.4 1.2l-.2.6-.1.5c-.1.5-.3 1.1-.4 1.6-.3 1-.5 1.8-.6 2.3 0 .1-.1.2-.1.4-.1-2-.3-4-.6-5.4-.2-1.1-.3-2-.5-2.6-.2-.6-.3-1.1-.4-1.4-.3-1-.5-1.9-.9-2.6-.4-.8-.8-1.5-1.2-2.1-.9-1.3-1.9-2.4-3.4-3.3.8 1.5 1.2 2.8 1.7 4.1.2.7.4 1.4.7 2.1.2.7.4 1.6.7 2.5.1.3.2.7.4 1.3.2.6.2 1.4.4 2.5.5 2.1.6 5.8.8 9-.3 3.1-.4 5.7-.4 5.7V90.6c-.2 0-.4 0 0 0 5.1.6 1.4.2 2.6.3 0-.2.1-.4.1-.6.1-.5.6-2.2 1.5-4.1.9-1.9 2.2-4 3.4-5.4.9-1.1 1.8-1.9 2.5-2.5.7-.6 1.2-1 1.6-1.3.7-.6 1.4-1 2.1-1.5l.9-.7.9-.6c1.2-.8 2.4-1.5 3.8-2.5-1.7.1-3.2.2-4.6.7-.4.1-.8.2-1.1.4-.4.1-.7.3-1.1.5-.8.4-1.6.8-2.4 1.5-.4.3-1 .7-1.8 1.4S11 77.8 10 79c-.1.1-.1.2-.2.3v-.1c.1-.5.3-1.3.6-2.2.1-.5.3-1 .4-1.5l.1-.5.2-.6c.1-.4.3-.8.4-1.2.3-.8.5-1.7.8-2.5 2.3-6.9 5.8-14.7 10-21.8 4.2-7 9-13.2 13-17.4 1-1.1 1.9-2 2.7-2.8.8-.8 1.6-1.5 2.2-2.1.6-.6 1.1-1 1.4-1.3.3-.3.5-.4.5-.4s.7-.6 2-1.7c.6-.6 1.4-1.2 2.4-1.8.9-.7 2-1.5 3.1-2.3 4.6-3.2 11.4-7.1 19.1-10 1-.4 1.9-.8 2.9-1.1l3-.9 3-.9c1-.2 2-.5 3-.7 2-.5 3.9-1 5.9-1.3 1-.2 1.9-.3 2.8-.5.5-.1.9-.2 1.4-.2l.7-.1.6-.1c2.6-.3 4.7-.5 5.7-.6 1-.1 1.8-.2 2.7-.3.8-.1 1.6-.2 2.3-.3 1.4-.3 2.8-.7 4.5-1.1-1.9-.4-3.3-.7-4.8-.8z"/></svg>