<svg xmlns="http://www.w3.org/2000/svg" width="60" height="60" viewBox="0 0 60 60"><path fill="#FF4B00" d="M47.8 16.1c-.8-.8-1.7-1.5-2.6-2.2-1-.7-1.8-1.6-2.8-2.1-1.1-.5-2.2-.6-3.4-.9-1.1-.3-2.2-.5-3.4-.6-1.2-.1-2.3-.5-3.5-.4-1.2.1-2.4.2-3.5.5s-2.1 1-3.2 1.5c-1 .5-1.9 1.3-2.8 2-.9.7-2 1.2-2.8 2-.8.8-1.5 1.8-2.1 2.7-.7 1-1.5 1.8-2 2.9-.5 1.1-.7 2.2-1 3.4-.3 1.1-.9 2.2-1 3.4-.1 1.2-.1 2.4 0 3.5.1 1.2.7 2.3 1 3.4.3 1.1.5 2.3 1 3.3s1.5 1.8 2.2 2.8c.7.9 1.2 1.9 2 2.8.9.9 1.9 1.6 3 2.3 1.1.7 2.1 1.3 3.3 1.8 1.2.5 2.4 1.2 3.7 1.5 0-1.4-.5-2.8-1-4-.5-1.2-1.2-2.2-2.3-3.1-.9-.8-1.7-2-3-2.6-1.2-.6-2.2-1.2-2.9-1.9-1-1-1.6-2-1.6-3.1s.5-2.1 1.5-3.1c.7-.8 1.5-1.7 2.8-2.3 1-.5 2.2-1.1 3.4-1.4 1.1-.3 2.5 0 3.7-.1 1.2-.1 2.4-.7 3.6-.7 1.2 0 2.4.5 3.6.6 1.2.2 2.5 0 3.6.3 1.2.3 2.4.8 3.4 1.3 1.2.6 2.3 1.3 3 2.1 1 1 1.1 2.2 1.1 3.3 0 1.1-.3 2.2-1.2 3.2-.7.8-1.6 1.8-2.8 2.4-1.3.6-2.4 1.3-3.3 2.1-1.1.9-2.2 1.7-2.6 2.9-.5 1.2-.8 2.7-.8 4.2 1.2-.3 2.6-.9 3.8-1.4 1.2-.5 2.3-1 3.4-1.8 1-.7 2-1.5 2.9-2.4.8-.8 1.4-1.9 2.1-2.8.7-1 1.6-1.8 2.1-2.8.5-1.1.9-2.2 1.2-3.3.3-1.1.1-2.3.2-3.5.1-1.2 0-2.3-.1-3.4-.1-1.2-.3-2.3-.6-3.4s-.6-2.2-1.1-3.2c-.5-1-1-2-1.7-3-.9-1.1-1.7-1.9-2.5-2.7zM30.9 42.8c-1.3 0-2.5 0-3.7-.3-1.2-.2-2.4-.7-3.5-1.1-1.2-.5-2.5-.6-3.6-1.3-1.1-.7-1.8-1.7-2.8-2.6-.9-.9-1.8-1.7-2.6-2.7-.7-1-1.5-2-2-3.2-.5-1.1-.8-2.3-1.1-3.5-.4 1.6-.4 3.2-.4 4.9 0 1.2-.2 2.4 0 3.5.2 1.2.4 2.3.8 3.4s.8 2.2 1.4 3.3c.6 1 1.4 1.9 2.1 2.8.7.9 1.6 1.7 2.5 2.4.9.7 2 1.2 3 1.8 1 .6 2 1.3 3.1 1.7 1.1.4 2.2.9 3.3 1.1 1.1.2 2.3 0 3.5 0 1.2 0 2.4.1 3.5-.1 1.2-.2 2.3-.5 3.4-.9s2.1-1 3.1-1.5c1-.6 2.2-1 3.1-1.8.9-.7 1.7-1.7 2.4-2.6.7-.9 1.2-2 1.8-3 .6-1 1.3-2 1.7-3.1.4-1.1.4-2.3.6-3.5.2-1.1.2-2.3.2-3.5 0-1.7 0-3.7-.4-5.3-.3 1.2-.7 2.8-1.2 3.9s-1.5 2.1-2.2 3.1c-.7 1-1.6 1.8-2.6 2.7-.9.9-1.7 1.9-2.7 2.6-1.1.7-2.3.9-3.5 1.3-1.2.5-2.2 1.4-3.4 1.7-1.2.2-2.6-.2-3.8-.2z" opacity=".2"/><path fill="#FF4B00" d="M38 24.1c0 .7.5 1.1 1.2 1.1s1.1-.3 1.1-1.1c0-.7-.4-1.4-1.1-1.4-.7 0-1.2.7-1.2 1.4M21.5 24c0 .7.6 1.2 1.3 1.2.7 0 1.5-.4 1.5-1.2 0-.7-.8-1.5-1.5-1.5-.8 0-1.3.8-1.3 1.5"/><path fill="#FF4B00" d="M30.9 51c-1.2 0-2.4-.2-3.6-.5-1.2-.2-2.4-.4-3.5-.9-1.2-.4-2.2-1.1-3.2-1.7-1.1-.6-2-1.3-3-2.1-.9-.8-1.7-1.7-2.5-2.6-.8-.9-2-1.6-2.6-2.6-.6-1.1-1-2.3-1.4-3.4-.4-1.1-.3-2.4-.6-3.6-.2-1.2-.9-2.4-.9-3.6 0-1.2.6-2.4.8-3.6.2-1.2.5-2.4.9-3.5.4-1.2.8-2.3 1.4-3.4.6-1.1 1.1-2.2 1.9-3.2.8-.9 1.7-1.8 2.7-2.6.9-.8 2.1-1.3 3.1-1.9 1.1-.6 2.2-.9 3.4-1.4 1.1-.4 2.3-.7 3.5-.9 1.1-.2 2.3-.5 3.6-.5 1.2 0 2.5.1 3.6.3 1.2.2 2.4.6 3.5 1 1.2.4 2.2 1 3.2 1.7 1.1.6 2 1.3 3 2.1.9.8 2.1 1.4 2.9 2.3.8.9 1.5 2 2.1 3 .6 1.1 1.2 2.2 1.7 3.3.4 1.1.7 2.4.9 3.6.2 1.2.4 2.5.4 3.7 0 1.2-.4 2.5-.6 3.6-.2 1.2-.5 2.4-.9 3.6-.4 1.2-1.1 2.2-1.7 3.2-.6 1.1-1.1 2.2-1.9 3.1-.8.9-1.6 1.9-2.5 2.7-.9.8-2.3 1-3.3 1.6-1.1.6-2.1 1.1-3.3 1.5-1.1.4-2.2.9-3.5 1.1-1.2.4-2.4.6-3.6.6zm0-40c-1.3 0-2.5 0-3.7.2-1.2.2-2.4.7-3.6 1.2-1.2.5-2.3 1-3.4 1.6-1 .7-2 1.5-2.9 2.4-.9.9-1.8 1.8-2.5 2.8-.7 1-.7 2.4-1.2 3.6-.5 1.1-1 2.2-1.2 3.5-.2 1.2-.8 2.4-.8 3.7 0 1.3.7 2.5.9 3.7.2 1.2.1 2.6.6 3.7.5 1.2 1.1 2.3 1.8 3.3s1.6 1.9 2.5 2.8c.9.9 2 1.4 3 2.1 1 .7 2.1 1.3 3.2 1.8s2.3 1 3.5 1.3c1.2.2 2.4.6 3.7.6 1.3 0 2.5-.1 3.7-.4 1.2-.2 2.4-.8 3.5-1.2 1.2-.5 2.3-1.1 3.3-1.8s2-1.5 2.9-2.3c.9-.9 1.8-1.8 2.5-2.8.7-1 1.3-2.2 1.8-3.3.5-1.1.5-2.4.7-3.7.2-1.2.3-2.4.3-3.7 0-1.3-.2-2.4-.5-3.6-.2-1.2-.5-2.4-1-3.5-.5-1.2-1.1-2.2-1.8-3.2s-1.2-2.2-2.1-3.1c-.9-.9-1.9-1.6-2.9-2.3-1-.7-2.1-1.4-3.2-1.9s-2.4-.6-3.6-.9c-1.1-.4-2.3-.6-3.5-.6z"/><path fill="#FF4B00" d="M25.5 31c0 .3 0 1 .4 1 .3 0 .4-.6.4-1 0-.3 0-.5-.4-.5s-.4.1-.4.5M26 34c0 .3.5.5.8.5.3 0 .8-.2.8-.5s-.4-.3-.8-.3c-.3 0-.5-.1-.5.3M23.4 33c0 .3.1.6.5.6.3 0 .6-.3.6-.6s-.2-.4-.6-.4c-.3 0-.9.1-.9.4M36.6 31c0 .3-.4 1-.7 1-.3 0-.9-.6-.9-1 0-.3.5-.4.9-.4.3 0 .3 0 .3.4M35.2 34c0 .3.1.8-.3.8-.3 0-.3-.5-.3-.8 0-.3 0-.3.3-.3s.7 0 .7.3M38.3 33c0 .3-.1.4-.5.4-.3 0-.5 0-.5-.4 0-.3.2-.6.5-.6s.8.3.8.6" opacity=".2"/><path fill="#FF4B00" d="M30.9 32.9c1.4 0 .9-.9 1.6-2.1s1.6-1.1.9-2.3c-.7-1.2-1.1-.2-2.5-.2s-2-1.1-2.7.1c-.7 1.2.8 1 1.3 2.3.3 1.4 0 2.2 1.4 2.2zM30.9 34.1c-.4 0-.6-.3-.8-.6-.7-1.2-.8-1.1-1.5-2.3-.7-1.2-.6-1.2-1.3-2.4-.2-.3-.5-.8-.3-1.1.2-.3.8-.7 1.1-.7 1.4 0 1.4.3 2.8.3s1.4-.3 2.8-.3c.4 0 .9.4 1 .8.2.3.2.9 0 1.2-.7 1.2-.8 1.1-1.5 2.3-.7 1.2-1 1-1.7 2.2-.2.2-.3.6-.6.6zm-1-4.7c-.5.9 0 1.8 1 1.8s1.3-.9 1.1-1.9c-.3-1.1-1.6-.8-2.1.1zM13 21.7c-.4 0-.8-.1-.9-.5-.5-1.9-.3-2-.8-3.9-.5-2-.7-1.9-1.2-3.9s-.8-1.9-1.3-3.8c0-.4.3-.9.5-1.1.2-.2.6-.1 1-.1 2 .5 1.9.6 3.9 1.1 2 .5 2 .2 4 .7s2 .4 4 .9c.5.1.6.7.4 1.2s-.4 1.1-1 .9c-1.7-.4-1.6-.8-3.3-1.2l-3.4-.8c-1.7-.4-3.3-.9-3.5-.7-.5.5.4 1.8.8 3.5l.8 3.4s.9 1.6 1.3 3.2c.1.5-.4 1.4-1 1.5-.1 0-.2-.4-.3-.4zM48.7 22.2c-.1 0-.1-.6-.2-.6-.5-.1-.8-.4-.7-.9.4-1.7.2-1.7.6-3.4.4-1.7.2-1.7.6-3.4.4-1.7 1.2-2.7 1-3-.2-.3-1.4.1-3 .6s-1.6.4-3.2.8c-1.6.5-1.6.5-3.2.9-.5.1-1.1.1-1.2-.5-.2-.5.3-.8.8-1 1.9-.5 1.8-.7 3.7-1.2 1.9-.5 1.8-.7 3.7-1.3l3.8-1c.3-.1.7.1.9.3.3.2.4.5.3.9-.5 1.9-.2 2-.7 4-.5 2-.7 1.9-1.2 3.8s-.7 1.9-1.2 3.8c-.2.6-.4 1.2-.8 1.2zM25.9 38.1c-.6 0-.9-.4-.9-1s.3-.7.9-.7c1.1 0 2.1-.7 2.8-1.4.7-.7 1.2-1.7 1.2-2.8 0-.6.5-.7 1-.7s1.1.1 1.1.7c0 1.1-.2 2.2-.8 3.1-.5.9-1.6 1.3-2.5 1.9-.8.4-1.7.9-2.8.9zM35.9 38.4c-1.1 0-2.3-.3-3.1-.8-.9-.5-1.3-1.6-1.9-2.5-.5-.9-1.2-1.8-1.2-2.9 0-.6.7-.9 1.2-.9s.8.3.8.9c0 1.1.8 1.9 1.6 2.7.7.7 1.6 1.6 2.7 1.6.6 0 .7.2.7.7s-.3 1.2-.8 1.2zM19.4 35.3h-3.8c-1.9 0-1.9-.1-3.8-.1s-1.9.2-3.8.2-1.9-.1-3.8-.1c-.3 0-.5-.4-.5-.7s.3-.6.6-.6c1.9 0 1.9.3 3.8.3s1.9.2 3.8.2 1.9-.2 3.8-.2 1.9.1 3.8.1c.3 0 .2 0 .2.3s0 .6-.3.6zM5.4 39.2c-.2 0-.3-.5-.3-.8 0-.3-.1-.8.2-.8 1.9-.2 1.9.1 3.8-.1s1.9-.3 3.8-.5 1.9-.3 3.8-.5 1.9.1 3.8-.2c.3 0 .3.1.3.3 0 .3 0 .5-.2.5-1.9.2-1.9.4-3.7.6-1.9.2-1.9-.1-3.8.1s-1.9.1-3.8.3-2 .9-3.9 1.1zM20.4 33.5s.1 0 0 0c-1.9-.2-1.9-.5-3.8-.8-1.9-.2-1.9-.3-3.7-.5-1.9-.3-1.9-.2-3.8-.5-1.9-.2-1.9-.3-3.8-.5-.3 0-.8-.2-.8-.5s.6-.4.9-.4c1.9.2 1.9-.1 3.8.1s1.8.6 3.7.8l3.8.4s1.9.5 3.7.7c.3 0 .5 0 .5.3s-.2.9-.5.9zM57.6 35.2c-1.9 0-1.9-.4-3.8-.4s-1.9-.1-3.8-.1-1.9.5-3.8.5-2.2-.1-4.1-.1c-.3 0-.2-.2-.2-.5s-.2-.4.1-.4c1.9 0 2.3-.4 4.2-.4 1.9 0 1.9.1 3.8.1h3.8c1.9 0 1.9.6 3.8.6.3 0 .6-.1.6.2s-.4.5-.6.5zM56.5 38.9c-1.9-.2-1.9-.4-3.8-.6-1.9-.2-1.9-.3-3.7-.6-1.9-.2-1.9.1-3.8-.1s-1.9-.4-3.7-.6c-.3 0-.5-.1-.4-.4 0-.3.3-.4.5-.4 1.9.2 1.9.3 3.8.5s1.9-.2 3.8 0l3.8.4c1.9.2 1.8.6 3.7.8.3 0 .5.2.4.5-.2.3-.4.5-.6.5zM41.4 33.3c-.2 0-.2-.5-.2-.7 0-.3-.1-.4.1-.4 1.9-.2 1.9-.1 3.8-.3l3.8-.4c1.9-.2 1.9-.4 3.7-.6 1.9-.2 1.9 0 3.8-.2.3 0 .5-.2.6.1 0 .3-.2.8-.5.8-1.9.2-1.9-.2-3.8 0s-1.9.3-3.7.5c-1.9.2-1.8.6-3.7.8-1.9.2-1.9.3-3.9.4.1.1.1 0 0 0zM27.5 49.3c-.9.5-1 .7-1.8.1 0-1.3 0-2.5-.5-3.6s-1.5-1.8-2.4-2.7c-.8-.7-1.7-1.4-3-2-1.4-.7-2.5-1.6-3.3-2.5-1-1.1-1.5-2.4-1.5-3.8 0-1.3.3-2.8 1.3-3.9.8-.9 2.1-1.6 3.5-2.3 1.1-.5 2.2-1.2 3.5-1.6 1.2-.3 2.5-.4 3.8-.5 1.2-.2 2.5-.2 3.8-.2 1.3 0 2.6-.1 3.8 0 1.3.2 2.5.6 3.7.9 1.3.4 2.4 1.1 3.4 1.6 1.4.7 2.7 1.3 3.5 2.2 1 1.1 1.6 2.5 1.6 3.8 0 1.3-.8 2.4-1.8 3.6-.8.9-1.7 2.1-3.1 2.8-1.2.6-2.3 1-3.1 1.7-1 .8-1.7 1.8-2.1 2.9-.4 1-.6 2.3-.5 3.6-.8.6-1.1.3-2-.2 0-1.2-.3-2.2 0-3.2.3-1.1.9-2.1 1.5-3 .6-.8 1.5-1.6 2.4-2.2.8-.6 1.9-.9 3-1.4 1-.5 1.8-1.3 2.4-1.9.9-.8 1-1.7 1-2.7 0-.9-.3-1.7-1.1-2.5-.6-.6-1.4-1.3-2.4-1.8s-2-1.1-3.2-1.4c-1.1-.3-2.2-.7-3.4-.8-1.1-.1-2.3.3-3.5.3-1.2 0-2.3.2-3.5.3-1.2.1-2.3.5-3.4.8-1.2.3-2.4.3-3.4.8s-2 1.1-2.6 1.7c-.9.8-1.2 1.9-1.2 2.8 0 .9.3 2 1.1 2.9.6.6 1.8.7 2.9 1.2 1.1.5 1.7 1.6 2.5 2.2.9.7 2 1.1 2.6 1.9.6.9 1.1 1.9 1.4 3 .2 1.1.1 2 .1 3.1z"/><path fill="#FF4B00" d="M11.2 13.3c-1 1 .7 1.5 1 2.9s-.8 2.6.5 2.9c1.4.3 1-1.3 2-2.3 1-1 2.6-.6 2.2-1.9-.3-1.3-1.7.2-2.9-.4-1.5-.9-1.9-2.2-2.8-1.2zM50.1 13.7c1 1-.1 1.2-.4 2.5s.5 2.1-.8 2.4c-1.4.3-.8-.9-1.8-1.9s-2.7-.5-2.4-1.9c.3-1.3 1.7 0 2.9-.6 1.3-.7 1.6-1.5 2.5-.5z" opacity=".2"/><path fill="#FF4B00" d="M30.8 10.1l.1-.4v.3l-.1.1c-1.3.2-2.3-.9-2.9.3-.7 1.4.5 1.7.9 3.3.4 1.5.6 1.5 1 3.1.4 1.5.6 3.3.9 3.4 0 0 .1-1.9.6-3.5.4-1.5.7-1.5 1.1-3s.9-1.5.7-3.1c0-1.4-.9-.2-2.3-.5zM23.3 11.5v-.2.2c0-.1.1.1 0 0l-.2-.5c-.8.6-1.4.3-1.3 1.3.3 1.8 1 1.4 2.1 2.8s1.6 3 2.1 2.8c.3-.1-.1-1.7-.3-3.5-.2-1.8.2-1.9-.6-3.6-.3-.8-.8.5-1.8.7zM38.5 11l-.1.5v-.1l.1-.2-.1.1c.8.6 1.5.1 1.3 1.1-.3 1.8-.6 1.7-1.7 3.1s-2.2 3-2.6 2.8c-.3-.1 0-2 .2-3.8s-.2-2 .5-3.7c.5-.9 1.4 0 2.4.2z"/></svg>