<svg xmlns="http://www.w3.org/2000/svg" width="60" height="60" viewBox="0 0 60 60"><path opacity=".2" fill="#FF4B00" d="M54.7 15.1c-1.2 1.2-2.5 1.5-3.7 1.6-1.8.2-3.2-.4-3.8-1-.6-.6-1.8-2-1.6-3.8.1-1.2.8-2.7 2-3.9 1-1 2.4-1.6 3.6-1.6 1.3 0 2.5.8 3.4 1.8 1 1 1.6 2.2 1.6 3.4.1 1.3-.5 2.5-1.5 3.5M10.8 15.3c1.2 1.2 2.7 1.5 3.9 1.6 1.8.2 3.6-.2 4.2-.8.6-.6.8-2.4.7-4.2-.1-1.2-.6-2.4-1.7-3.6-1-1-2.1-1.4-3.4-1.4-1.3 0-2.4.4-3.4 1.4-1 1-1.3 2.1-1.3 3.4 0 1.3.2 2.6 1.2 3.5"/><path opacity=".2" fill="#FF4B00" d="M53.4 26.5c-.2-1.2-.6-2.2-1-3.3-.4-1.1-.4-2.4-.9-3.4-.6-1-1.2-2.1-2-2.9-.7-.9-1.7-1.6-2.6-2.4-.9-.7-2-1.1-3.1-1.7-1-.6-1.9-1.4-3-1.8-1.1-.4-2.3-.4-3.4-.6-1.1-.2-2.3-.5-3.4-.5-1.2 0-2.4-.2-3.5 0-1.2.2-2.2.9-3.3 1.3-1.1.4-2.4.4-3.4 1s-1.7 1.6-2.6 2.4c-.9.7-2 1.3-2.8 2.2-.7.9-1.1 2.1-1.7 3.1-.6 1-1.2 2-1.6 3.1-.4 1.1-.3 2.3-.5 3.5-.2 1.1-.9 2.2-.9 3.4 0 1.2.5 2.3.7 3.5.2 1.2.8 2.2 1.2 3.3.4 1.1.3 2.4.9 3.4.6 1 1.6 1.8 2.3 2.7.7.9 1.5 1.8 2.4 2.5.9.7 1.7 1.6 2.7 2.2 1 .6 2.3.7 3.4 1.1 1.1.4 2.1 1.1 3.3 1.3 1.1.2 2.3 0 3.5 0v.2c1.2 0 2.4 0 3.5-.2 1.2-.2 2.2-1 3.2-1.4 1.1-.4 2.1-.9 3.1-1.4 1-.6 1.9-1.3 2.8-2 .9-.7 1.9-1.4 2.6-2.3.7-.9 1.7-1.7 2.2-2.7.6-1 1-2.1 1.4-3.2.4-1.1.3-2.3.5-3.5.2-1.1.7-2.2.7-3.4-.1-1.2-.5-2.3-.7-3.5zm-35.5 6c-1.4 0-2.6-1.2-2.6-2.6 0-1.4 1.2-2.3 2.6-2.3 1.4 0 2.3.9 2.3 2.3 0 1.5-.9 2.6-2.3 2.6zm26 .2c-1.4 0-2.4-1.3-2.4-2.7 0-1.4 1-2.3 2.4-2.3s2.2 1 2.2 2.3c0 1.4-.8 2.7-2.2 2.7zM30.9 42.8c-1.3 0-2.5.1-3.8-.1-1.2-.2-2.4-.9-3.5-1.3-1.2-.5-2.3-.9-3.4-1.6-1.1-.7-2.2-1.2-3.2-2.1-.9-.9-1.3-2.1-2.1-3.2-.7-1-1.4-2-1.9-3.2-.5-1.1-1.2-2.1-1.6-3.4-.4 1.6-.3 3.2-.3 5 0 1.2.1 2.3.2 3.4.2 1.2.4 2.3.8 3.4s.5 2.3 1.1 3.3c.6 1 1.5 1.8 2.2 2.7.7.9 1.5 1.7 2.4 2.5.9.7 2 1.2 3 1.7 1 .6 2 1.1 3.1 1.5 1.1.4 2.1.9 3.3 1.1 1.1.2 2.3 0 3.5 0 1.2 0 2.3.1 3.5-.1 1.2-.2 2.4-.2 3.5-.6 1.1-.4 2-1.2 3-1.7 1-.6 1.9-1.3 2.8-2.1.9-.7 1.9-1.4 2.6-2.3.7-.9 1.4-1.9 2-2.9.6-1 .9-2.1 1.3-3.2s.7-2.2.9-3.3c.2-1.1.1-2.3.1-3.5 0-1.7.1-3.5-.3-5.1-.3 1.2-.5 2.6-1 3.7s-1.7 1.9-2.5 2.9c-.7 1-1.2 2.3-2.1 3.1-.9.9-2 1.5-3.1 2.2-1.1.7-2.3.9-3.5 1.4-1.2.5-2.3.8-3.5 1-1.1.5-2.2.8-3.5.8z"/><path fill="#FF4B00" d="M32 24.1c0 .7.5 1.4 1.3 1.4.7 0 1.6-.7 1.6-1.4s-.9-1.5-1.6-1.5c-.8 0-1.3.8-1.3 1.5M27.2 24c0 .7.8 1.5 1.6 1.5.7 0 1.4-.7 1.4-1.5 0-.7-.7-1.6-1.4-1.6-.7.1-1.6.9-1.6 1.6"/><path fill="#FF4B00" d="M30.9 51.2c-1.2 0-2.5-.3-3.7-.5-1.2-.2-2.5-.2-3.6-.7-1.2-.4-2.3-1.1-3.3-1.7-1.1-.6-1.8-1.7-2.7-2.5-.9-.8-2.2-1.3-3-2.2-.8-.9-1.4-2-2-3.1-.6-1.1-1.1-2.2-1.6-3.3-.4-1.1-.4-2.4-.6-3.6-.2-1.2-.4-2.4-.4-3.6 0-1.2-.2-2.5 0-3.7.2-1.2.7-2.4 1.1-3.5.4-1.2 1.1-2.2 1.7-3.2.6-1.1.9-2.3 1.7-3.3.8-.9 1.8-1.7 2.8-2.5.9-.8 1.9-1.5 3-2.1 1.1-.6 2.2-1 3.4-1.4 1.1-.4 2.3-.6 3.5-.8 1.2-.2 2.4-.5 3.6-.5 1.2 0 2.4.2 3.6.4 1.2.2 2.4.3 3.6.7 1.2.4 2.1 1.2 3.2 1.8 1.1.6 2.2 1.1 3.1 1.9.9.8 1.6 1.8 2.4 2.8.8.9 1.4 1.9 2 3 .6 1.1 1.6 1.9 2 3.1.4 1.1.1 2.5.3 3.7.2 1.2.6 2.3.6 3.6 0 1.2.1 2.5-.1 3.7-.2 1.2-.5 2.5-.9 3.6-.4 1.2-.9 2.3-1.5 3.4s-1.5 2-2.2 3c-.8.9-1.6 1.9-2.5 2.7-.9.8-2.2 1.2-3.2 1.8-1.1.6-2.1 1.3-3.3 1.7-1.1.4-2.3.8-3.5 1-1 .1-2.3.3-3.5.3zm0-40c-1.3 0-2.5 0-3.7.2-1.2.2-2.3.9-3.4 1.4-1.2.5-2.3.9-3.3 1.6-1 .7-2.3 1.1-3.2 2-.9.9-1.3 2.2-2 3.2s-1.4 2-1.8 3.2c-.5 1.1-.8 2.3-1.1 3.5-.2 1.2-.8 2.4-.8 3.7 0 1.3.2 2.5.4 3.7.2 1.2.9 2.3 1.4 3.5.5 1.2.9 2.3 1.6 3.4.7 1 1.4 2.1 2.2 3 .9.9 2.1 1.3 3.2 2 1 .7 2 1.5 3.2 1.9 1.1.5 2.3.8 3.6 1.1 1.2.2 2.4.5 3.7.5 1.3 0 2.6 0 3.8-.2 1.2-.2 2.4-.8 3.6-1.2 1.2-.5 2.3-1 3.3-1.7s1.9-1.7 2.8-2.5c.9-.9 1.9-1.7 2.6-2.7.7-1 1-2.3 1.5-3.4s1.1-2.3 1.4-3.5c.2-1.2.4-2.5.4-3.8 0-1.3-.7-2.5-.9-3.7-.2-1.2 0-2.6-.5-3.8-.5-1.2-1.4-2.1-2.1-3.2-.7-1-1.7-1.8-2.5-2.7-.9-.9-1.9-1.6-2.9-2.3-1-.7-2.1-1.2-3.3-1.7-1.1-.5-2.2-.9-3.5-1.2-1.3-.2-2.5-.3-3.7-.3z"/><path fill="#FF4B00" d="M10.5 13.6c1 1 2.7.7 3.7-.3s1.3-2.7.3-3.7-2.7-.6-3.7.4c-.9.9-1.3 2.6-.3 3.6" opacity=".2"/><path fill="#FF4B00" d="M13.3 18c-.8 0-1.8 0-2.8-.4-.8-.3-1.7-.7-2.4-1.5-.8-.8-1.2-1.9-1.4-2.9-.3-1-.6-2.2-.3-3.2s1.1-1.8 1.9-2.6c1.1-1.1 2.7-1.8 4.3-1.8 1.6 0 3 .8 4.1 1.9.8.8 1.5 1.5 1.8 2.3.4 1.1.5 2.1.5 2.9-.1 1.5-.8 2.9-1.6 3.7-.8.7-2.2 1.6-4.1 1.6zm-.8-10.6c-1.1 0-2.1.6-2.8 1.4-.8.8-1.1 1.8-1.1 2.8s.5 1.9 1.2 2.6c1.3 1.3 2.5 1.7 3.5 1.7 1.4 0 2.4-.5 2.7-.8.3-.3.8-1.3.8-2.5 0-1 0-2.7-1.4-4-.7-.7-1.8-1.2-2.9-1.2zM30.9 33.3c1.4 0 .5-1.6 1.2-2.7.7-1.2 2.2-1 1.5-2.1-.7-1.2-1.3-.1-2.7-.1-1.4 0-2-1.2-2.8 0-.7 1.2 1 1 1.4 2.3.4 1.5 0 2.6 1.4 2.6zM30.9 34c-.4 0-.9-.1-1.1-.4-.7-1.2-.7-1.2-1.4-2.3-.7-1.2-.6-1.2-1.3-2.4-.2-.3-.2-.9 0-1.2.2-.3.7 0 1 0 1.4 0 1.4-.4 2.8-.4s1.4.2 2.8.2c.4 0 .8 0 1 .3.2.3-.1.7-.3 1L33 31.2l-1.4 2.4c-.2.2-.4.4-.7.4zm-1.1-4.7c-.5.9 0 1.5 1 1.5s1-.5.8-1.5c-.2-1.1-1.2-.9-1.8 0zM30.9 38.3c-.6-.1-1.2-.6-1.2-1.1 0-2.1.3-2.1.3-4.2 0-.6.4-.9.9-.9v-.2c.6 0 .7.5.7 1.1v4.2c-.1.5-.2 1.1-.7 1.1zM33.7 38.6c-1.4 0-1.4-.2-2.8-.2s-1.4.1-2.8.1c-.6 0-.7-.7-.7-1.2s.2-1 .7-1c1.4 0 1.4-.2 2.8-.2s1.4.3 2.8.3c.6 0 1 .3 1 .9s-.5 1.3-1 1.3z"/><path fill="#FF4B00" d="M51.1 13.4c-1 1-2.8 1.1-3.8.1s-.8-2.7.2-3.7 2.7-1.1 3.6-.1c1 1 1 2.7 0 3.7" opacity=".2"/><path fill="#FF4B00" d="M48.5 18c-1.9 0-3.7-.6-4.4-1.3-.6-.6-.9-1.9-1.1-3.3-.2-1-.1-2.2.2-3.4.3-1 1-1.8 1.9-2.7 1.1-1.1 2.5-2 4.1-2s3 .9 4.1 2.1c.8.8 1.2 1.6 1.5 2.6.3 1 .3 2 0 3s-.4 2.2-1.2 2.9c-.8.8-1.7 1.1-2.5 1.5-.9.5-1.9.6-2.6.6zm.8-10.3c-1.1 0-1.8.6-2.6 1.3-1 1-1.6 1.8-1.7 2.8-.2 1.5.4 2.8.8 3.2.3.3 1.2 1 2.7 1 1 0 2.2-.5 3.5-1.8.8-.8 1.5-1.7 1.5-2.7 0-1-.4-2.2-1.2-3-.8-.6-2-.8-3-.8z"/></svg>