<svg xmlns="http://www.w3.org/2000/svg" width="60" height="60" viewBox="0 0 60 60"><path fill="#FF4B00" d="M30.9 42.4c-1.3 0-2.6.4-3.8.2-1.2-.2-2.5-.7-3.6-1.1-1.2-.5-2.2-1.3-3.3-1.9-1.1-.7-2-1.6-2.9-2.4-.9-.9-2.1-1.5-2.8-2.5-.7-1-1.3-2.2-1.9-3.3-.5-1.1-.8-2.3-1.1-3.5-.4 1.6-.5 3.2-.5 4.9 0 1.2-.3 2.4-.1 3.5.2 1.2 1 2.2 1.3 3.2.4 1.1.9 2.1 1.5 3.1s1 2.1 1.8 3c.7.9 1.6 1.7 2.5 2.4.9.7 1.7 1.7 2.7 2.3 1 .6 2.1 1.1 3.2 1.5 1.1.4 2.3.4 3.5.6 1.1.2 2.3.2 3.5.2 1.2 0 2.4.2 3.5 0 1.2-.2 2.2-.8 3.3-1.2 1.1-.4 2.1-1 3.1-1.6 1-.6 2.3-.8 3.2-1.5.9-.7 1.7-1.7 2.4-2.5.7-.9 1.5-1.8 2.1-2.9.6-1 .8-2.2 1.2-3.3.4-1.1.8-2.2 1-3.3.2-1.1.2-2.3.2-3.5 0-1.7 0-3.6-.5-5.2-.3 1.2-1.1 2.5-1.6 3.7-.5 1.1-.9 2.4-1.6 3.4-.7 1-1.9 1.7-2.8 2.5-.9.9-1.5 2.1-2.6 2.8-1.1.7-2.4.8-3.6 1.3-1.2.5-2.3 1-3.5 1.3-1.3-.1-2.5-.2-3.8-.2z" opacity=".2"/><path fill="#FF4B00" d="M42.3 24.5c-.7 0-1.3.4-1.3 1.2 0 .7.5 1.4 1.3 1.4.7 0 1-.7 1-1.4s-.3-1.2-1-1.2zM19.8 24.5c-.7 0-1.6.3-1.6 1.1 0 .7.8 1.3 1.6 1.3.7 0 1.3-.5 1.3-1.3 0-.7-.5-1.1-1.3-1.1zM36.4 13.7c-.9-.4-1.4-1.2-2.7-2.5-1.3-1.3-1.1-1.6-2.4-2.9C30 7 30 7.1 28.7 5.7s-2.4-1.4-3-2.4c-.5-.9.7-2.1 1.6-1.7 1 .5 1.4 1.4 2.7 2.7 1.3 1.3.9 1.7 2.3 3 1.3 1.3 1.6 1 2.9 2.4s1.9 1.7 2.6 2.7c.6.9-.4 1.7-1.4 1.3zM31.2 13.6c-.7-.5-1.3-1.2-2.6-2.5s-1.4-1.3-2.7-2.6c-1.3-1.3-1.4-1.3-2.7-2.6s-2.6-1.8-3-2.5c-.4-.9.8-2 1.7-1.5.9.4 1.2 1.5 2.5 2.8C25.8 6 26 5.8 27.3 7.1c1.3 1.3 1 1.6 2.3 3 1.3 1.3 2.3 1.5 3 2.4.7.7-.6 1.7-1.4 1.1zM41.7 13.8c-1.8-.5-1.3-1.2-2.7-2.5-1.3-1.3-1.2-1.4-2.6-2.7-1.3-1.3-1.3-1.4-2.6-2.7s-2.4-1.5-3-2.4c-.5-.9.6-1.9 1.6-1.4.8.3 1.1 1.5 2.5 2.8 1.3 1.2 1.8.7 3.1 2.1 1.3 1.3 1.3 1.4 2.6 2.7s1.5 1.2 2.4 2.9c.4.9-.4 1.4-1.3 1.2z"/><path fill="#FF4B00" d="M23.1 31.4c-.1 1.1-2.3 1.9-4.5 1.6s-3.7-1.4-3.6-2.5c.1-1.1 1.7-1.9 3.9-1.7 2.3.3 4.3 1.5 4.2 2.6zM47 30.7c.1 1.1-1.4 2.2-3.6 2.4s-4.1-.4-4.2-1.5c-.1-1.1 1.7-2 3.9-2.3 2.2-.3 3.8.3 3.9 1.4z" opacity=".2"/><path fill="#FF4B00" d="M30.9 35.2c-1 0-1.9-.6-2.8-.9-.9-.2-1.7-.7-2.5-1.2-.5-.3-1.1-.7-.8-1.2.3-.5 1.2-.6 1.7-.3.9.5 1.9.8 2.9.9 1 .2 2.1.7 3.1.6 1-.2 2-.8 2.9-1.3.5-.3.8 0 1.1.4.3.5.4 1-.1 1.3-.8.5-1.7 1-2.6 1.3-1 .2-2 .4-2.9.4zM30.9 50.6c-1.2 0-2.5.2-3.7 0-1.2-.2-2.2-1.1-3.4-1.6-1.2-.4-2.2-.9-3.3-1.5-1.1-.6-2.3-.9-3.3-1.7-.9-.8-1.9-1.6-2.6-2.6-.8-.9-1.3-2.1-2-3.1C12 39 11.4 38 11 36.8c-.4-1.1-.9-2.3-1.1-3.5-.2-1.2 0-2.4 0-3.7 0-1.2.2-2.4.4-3.6.2-1.2.5-2.4 1-3.5.4-1.2.5-2.5 1.1-3.5.6-1.1 1.4-2 2.2-3 .8-.9 1.9-1.6 2.8-2.4.9-.8 2-1.3 3.1-1.9 1.1-.6 2.1-1.2 3.2-1.6 1.2-.5 2.3-1.1 3.5-1.3 1.2-.2 2.4-.4 3.7-.4 1.2 0 2.5.2 3.7.4 1.2.2 2.4.7 3.5 1.1 1.2.4 2.1 1.2 3.2 1.8 1.1.6 2.1 1.2 3 2 .9.8 1.9 1.5 2.7 2.4.8.9 1.4 2 2 3 .6 1.1 1.5 2 1.9 3.2.4 1.1.3 2.4.5 3.7.2 1.2.2 2.4.2 3.6 0 1.2.5 2.5.3 3.7-.2 1.2-.7 2.4-1.1 3.5-.4 1.2-1 2.3-1.6 3.3-.6 1.1-1.3 2.1-2.1 3-.8.9-1.8 1.7-2.8 2.4-.9.8-1.8 1.8-2.8 2.4-1.1.6-2.4.6-3.5 1s-2.2 1.2-3.4 1.4c-1.2.3-2.5.3-3.7.3zm0-40c-1.3 0-2.4.4-3.6.6-1.2.2-2.6 0-3.7.5-1.2.5-2.3 1.1-3.3 1.8s-1.7 1.9-2.6 2.7c-.9.9-1.6 1.8-2.3 2.9-.7 1-1.4 2-1.9 3.2-.5 1.1-.8 2.3-1 3.6-.2 1.2-.2 2.4-.2 3.7 0 1.3-.2 2.5.1 3.7.2 1.2.5 2.5 1 3.6.5 1.2 1.1 2.3 1.8 3.3s1.9 1.7 2.7 2.6c.9.9 1.8 1.7 2.8 2.4 1 .7 2 1.6 3.1 2 1.1.5 2.3 1 3.6 1.3 1.2.2 2.5.3 3.8.3 1.3 0 2.5-.5 3.7-.7 1.2-.2 2.4-.7 3.5-1.2 1.2-.5 2.3-1 3.3-1.7s2.1-1.4 3-2.2c.9-.9 1.9-1.7 2.6-2.7.7-1 1.2-2.2 1.7-3.4.5-1.1.7-2.4.9-3.6.2-1.2.4-2.4.4-3.7 0-1.3-.5-2.5-.7-3.7-.2-1.2-.2-2.5-.6-3.7-.5-1.2-1-2.3-1.7-3.4-.7-1-1.9-1.6-2.8-2.5-.9-.9-1.7-1.8-2.7-2.5-1-.7-2.1-1.3-3.2-1.8s-2.3-.8-3.5-1c-1.8-.1-3-.4-4.2-.4z"/><path fill="#FF4B00" d="M30.9 23.8c-.6 0-.9 1-1.6 2.2s-1.7 2.1-1.5 2.7c.3.8 1.6-.2 3-.2s2.1.5 2.6-.1c.4-.5-.5-1-.9-2.3-.4-1.4-1-2.3-1.6-2.3z" opacity=".2"/></svg>