<svg xmlns="http://www.w3.org/2000/svg" width="80" height="80" viewBox="0 0 80 80"><path fill="#FF4B00" d="M40.014 79.678c-1.17 0-2.347.406-3.49.306-1.164-.1-2.325-.3-3.458-.5-1.148-.204-2.227-.717-3.338-1.017-1.124-.303-2.36-.274-3.443-.67-1.092-.4-2.14-.963-3.186-1.454-1.053-.494-1.88-1.417-2.88-2-1.003-.583-2.018-1.122-2.964-1.79-.95-.668-2.063-1.128-2.948-1.875-.887-.748-1.382-1.92-2.2-2.74-.82-.823-1.606-1.64-2.35-2.532-.745-.89-1.83-1.513-2.497-2.466-.663-.95-1.317-1.932-1.898-2.94-.58-1.003-.98-2.118-1.474-3.174-.49-1.05-.655-2.23-1.054-3.327-.395-1.088-1.03-2.098-1.332-3.227-.298-1.116-.44-2.276-.642-3.428-.2-1.137-.723-2.253-.824-3.42-.1-1.15.03-2.34.03-3.513s.486-2.31.585-3.46c.102-1.167-.216-2.376-.017-3.513.202-1.153.386-2.323.684-3.44.3-1.13 1.172-2.07 1.568-3.157.4-1.097.554-2.278 1.043-3.328.492-1.056 1.045-2.08 1.624-3.083.582-1.008 1.416-1.84 2.08-2.79.666-.952 1.295-1.91 2.04-2.8.744-.89 1.483-1.77 2.3-2.59.82-.823 1.49-1.81 2.376-2.56.886-.746 1.794-1.49 2.742-2.16.946-.667 2.094-1.026 3.097-1.61 1-.58 1.954-1.245 3.005-1.74 1.045-.49 2.146-.852 3.238-1.252 1.083-.397 2.188-.713 3.312-1.015 1.112-.3 2.18-.834 3.33-1.037 1.13-.2 2.302-.254 3.465-.355 1.144-.1 2.306.157 3.475.157s2.302.086 3.446.185c1.163.1 2.313.098 3.446.298 1.148.203 2.275.424 3.387.723 1.125.303 2.168.798 3.25 1.195 1.092.4 2.34.415 3.384.906C57.978 3.98 58.98 4.6 59.98 5.18c1.004.585 1.86 1.403 2.807 2.07.95.67 1.82 1.423 2.704 2.17.888.75 1.806 1.452 2.624 2.274s1.58 1.692 2.325 2.583c.743.89 1.334 1.885 2 2.838.664.95 1.736 1.648 2.318 2.656.58 1.004.657 2.282 1.15 3.338.488 1.05 1.042 2.065 1.44 3.16.396 1.088 1.028 2.114 1.33 3.243.298 1.117.48 2.284.682 3.436.2 1.137-.06 2.34.042 3.506.1 1.148.598 2.287.598 3.46s-.336 2.328-.435 3.476c-.1 1.168-.35 2.294-.55 3.43-.202 1.153-.22 2.333-.517 3.45-.3 1.13-.407 2.33-.803 3.417-.4 1.097-1.167 2.047-1.656 3.097-.493 1.056-.797 2.217-1.376 3.22-.582 1.01-1.43 1.853-2.095 2.803-.667.953-1.305 1.927-2.05 2.816-.744.89-1.542 1.738-2.36 2.56-.82.822-1.514 1.8-2.4 2.55-.887.746-1.916 1.338-2.864 2.007-.946.667-1.816 1.495-2.82 2.08-1 .58-2.164.89-3.216 1.385-1.045.49-2.108.97-3.2 1.372-1.083.397-2.134.98-3.258 1.283-1.112.3-2.362.038-3.51.24-1.13.2-2.275.21-3.438.31-1.143.1-2.27.27-3.44.27zm0-78.003c-1.178 0-2.32.51-3.472.617-1.17.108-2.312.222-3.45.435-1.154.216-2.344.224-3.46.543-1.126.323-2.093 1.073-3.175 1.495-1.09.426-2.18.787-3.22 1.31-1.046.524-2.274.72-3.262 1.335-.992.62-1.912 1.37-2.84 2.076-.932.707-1.623 1.7-2.484 2.488s-2.06 1.25-2.846 2.115c-.785.864-1.527 1.805-2.232 2.74-.703.932-.97 2.176-1.586 3.172-.614.992-1.154 2.01-1.677 3.06-.52 1.045-1.133 2.04-1.557 3.136-.42 1.087-1.078 2.11-1.4 3.242-.317 1.12-.292 2.338-.507 3.496-.212 1.143-.484 2.288-.59 3.463-.107 1.155.214 2.33.214 3.513s-.127 2.34-.02 3.496c.107 1.175-.164 2.403.048 3.545.215 1.16.944 2.196 1.26 3.316.322 1.133.757 2.202 1.177 3.29.424 1.095.398 2.39.918 3.435.523 1.05 1.37 1.933 1.983 2.926.616.997 1.263 1.973 1.966 2.905.704.935 1.262 2.01 2.047 2.874.785.864 1.684 1.648 2.545 2.437s1.8 1.51 2.73 2.218c.928.706 2.044 1.144 3.036 1.763.99.617 2.01 1.152 3.057 1.677 1.04.522 1.976 1.287 3.067 1.713 1.082.422 2.24.662 3.367.984 1.116.32 2.234.678 3.388.894 1.138.213 2.3.41 3.47.518 1.15.106 2.327-.13 3.504-.13 1.178 0 2.337.047 3.488-.06 1.17-.107 2.376.034 3.514-.18 1.154-.215 2.32-.455 3.436-.774 1.127-.323 2.202-.848 3.284-1.27 1.09-.426 2.155-.932 3.195-1.454 1.045-.525 2.153-.97 3.14-1.585.993-.618 1.692-1.67 2.62-2.375.93-.707 1.867-1.384 2.728-2.173.86-.79 1.844-1.458 2.63-2.323.785-.866 1.59-1.734 2.293-2.668.704-.932 1.284-1.965 1.9-2.962.614-.992 1.208-2.008 1.73-3.058.52-1.044 1.124-2.072 1.548-3.167.42-1.087.29-2.36.61-3.493.32-1.12 1.09-2.135 1.306-3.293.212-1.144.253-2.334.36-3.51.107-1.156-.134-2.333-.134-3.516s.02-2.34-.086-3.496c-.108-1.176.138-2.4-.074-3.542-.215-1.16-.92-2.2-1.24-3.32-.32-1.132-.42-2.33-.84-3.418-.425-1.096-.812-2.222-1.33-3.266-.524-1.05-1.305-1.964-1.92-2.956-.615-.996-1.482-1.802-2.185-2.734-.704-.935-1.178-2.05-1.964-2.913-.785-.866-1.794-1.5-2.655-2.29-.86-.788-1.585-1.735-2.515-2.442-.928-.706-1.94-1.3-2.93-1.918-.99-.617-1.996-1.203-3.042-1.728-1.04-.522-2.195-.763-3.286-1.19-1.082-.42-2.12-.942-3.247-1.265-1.115-.32-2.282-.362-3.435-.578-1.138-.214-2.238-.638-3.41-.746-1.15-.107-2.308-.44-3.486-.44z"/><path fill="#FF4B00" d="M42.046 40.836c-2.526.383-2.613.073-5.14-.31-1.69-.255-1.69-.336-3.284-.963-1.594-.628-1.45-.995-3.045-1.623-1.594-.628-1.748-.235-3.342-.864-1.595-.628-1.455-.986-3.05-1.614-1.597-.63-1.644-.51-3.24-1.14-1.598-.63-1.908-2.448-3.31-1.453-1.432 1.016-.193 1.935-.193 3.698s.18 1.763.18 3.526.165 1.763.165 3.527c0 1.767.014 1.767.014 3.534 0 1.766-.8 1.916.178 3.385.95 1.427 1.456.56 3.048 1.187 1.594.628 1.6.616 3.193 1.244 1.593.63 1.578.668 3.172 1.296 1.595.628 1.492.892 3.086 1.52 1.597.63 1.64.52 3.237 1.15s1.504.907 3.2 1.164c2.527.383 2.555.442 5.082.06 1.69-.256 1.545-.707 3.137-1.334 1.594-.628 1.73-.283 3.323-.91s1.558-.72 3.153-1.35 1.492-.89 3.087-1.517c1.597-.63 1.594-.64 3.19-1.268 1.598-.63 2.375.384 3.33-1.047.978-1.464-.16-1.81-.16-3.573s-.24-1.763-.24-3.526.117-1.763.117-3.527c0-1.767.387-1.767.387-3.534s1.167-2.38-.265-3.404c-1.393-.997-1.454.62-3.046 1.248-1.595.628-1.7.358-3.294.986s-1.48.917-3.075 1.546c-1.594.628-1.702.352-3.296.98-1.597.63-1.705.438-3.216 1.254-1.56.84-1.386 1.392-3.082 1.65zM60.232 30.417c-.26-2.174-1.194-2.045-3.342-2.424-1.598-.282-1.52.354-2.976 1.072-1.46.718-1.253 1.14-2.712 1.858-1.46.718-1.478.68-2.937 1.397-1.46.72-1.675.277-3.134.996-1.46.72-1.237 1.18-2.698 1.9-1.462.72-1.4 1.114-3.027 1.115-1.616.002-1.366-.775-2.815-1.492-1.45-.718-1.646-.32-3.096-1.04-1.45-.718-1.44-.738-2.892-1.457-1.45-.718-1.284-1.06-2.735-1.777-1.454-.72-1.436-.756-2.89-1.476-1.454-.72-1.42-1.69-3.016-1.412-2.154.375-3.398.508-3.675 2.687-.21 1.644 1.735.495 3.27 1.1 1.54.606 1.383 1.004 2.92 1.61 1.54.606 1.55.578 3.088 1.184 1.54.606 1.517.662 3.056 1.268 1.54.607 1.555.57 3.096 1.177 1.54.608 1.546.714 3.183.957 2.527.375 2.596.474 5.124.1 1.63-.24 1.577-.56 3.11-1.163 1.537-.605 1.51-.673 3.046-1.278 1.536-.605 1.45-.828 2.985-1.433 1.537-.605 1.634-.356 3.17-.96 1.54-.607 1.38-1.262 3.02-1.463 1.77-.215 3.073.606 2.877-1.043z" opacity=".2"/><path fill="#FF4B00" d="M72.766 34.766c-.64-1.773-1.59-.906-3.316-1.644-1.728-.738-2.16-1.258-3.45-1.093-.615.077-1.55.624-1.453 1.586.068.66 1.76.624 3.086 1.16-.235.14-.498.28-.84.41-1.717.657-1.743.588-3.46 1.245-.533.204-.872.394-1.15.578-.092-.45-.19-.86-.19-1.75 0-1.644.252-1.644.252-3.288 0-1.642 1.09-3.056 0-3.513-.556-.234-1.15.066-1.91.486-1.062-1.57-1.882-2.343-3.314-2.276-1.06.05-1.356.982-2.826 1.705-1.47.724-1.45.767-2.918 1.49-1.468.722-1.65.347-3.118 1.07-1.467.722-1.48.695-2.948 1.417-1.467.72-1.378.903-2.845 1.626-1.465.72-1.33 1.234-2.96 1.233-1.63-.002-1.324-.86-2.786-1.583-1.463-.723-1.664-.313-3.126-1.036-1.46-.72-1.5-.64-2.96-1.362-1.458-.722-1.496-.644-2.955-1.366s-1.454-.733-2.913-1.455c-1.457-.72-1.81-2.22-2.78-1.754-.72.348-.91 1.11-2.02 1.908-.534.386-1.023.402-1.438.46-.613-.43-1.072-.69-1.57-.202-.638.627.145 1.516.145 3.163 0 1.648-.41 1.648-.41 3.296 0 1.103-.05 1.473-.08 2.088-.287-.126-.63-.27-1.125-.46-1.713-.656-1.636-.857-3.35-1.514-.347-.133-.606-.275-.833-.414 1.126-.67 2.63-.664 3.17-1 .484-.3-.504-1.884-1.265-2.135-.97-.318-1.883.486-3.63 1.176s-2.414.023-3.1 1.778.733 1.49 1.544 3.19c.812 1.7.51 3.42 1.267 3.803.748.377 2.764-.734 2.777-1.568.007-.465-1.145-1.146-1.718-2.134.146.035.293.072.45.133 1.598.61 1.673.413 3.27 1.025 1.453.557 1.567.685 2.78 1.164.09.354.166.752.166 1.443 0 1.644-.053 1.644-.053 3.288 0 1.643-.65 2.622-.065 3.276.697.78 1.74.432 3.404 1.087 1.663.655 1.505 1.06 3.168 1.715 1.66.654 1.684.592 3.344 1.246s1.75.42 3.41 1.075 1.56.91 3.22 1.565c1.657.653 1.683.53 3.424.905 1.34.29 1.313.158 2.682.158 1.37 0 1.463.692 2.802.403 1.746-.376 1.556-.91 3.18-1.762 1.583-.83 1.742-.504 3.405-1.16 1.66-.653 1.71-.52 3.37-1.175s1.702-.547 3.363-1.2c1.66-.655 1.495-1.075 3.155-1.73 1.658-.652 2.677-.396 3.5-1.037.65-.507-.193-1.728-.193-3.375s.155-1.646.155-3.293c0-.55.017-.91.037-1.215 1.252-.475 1.39-.506 2.858-1.067 1.594-.61 1.502-.854 3.096-1.464.232-.087.45-.14.658-.172-.59.89-1.66 1.496-1.502 2.224.31 1.43 1.307 1.63 2.09 1.33.64-.246 1.405-1.393 1.96-3.305.524-1.81 2.02-1.627 1.38-3.4zM60.1 38.256c-1.715.657-1.835.342-3.55.998-1.713.656-1.708.668-3.423 1.324-1.712.655-1.788.456-3.5 1.11-1.714.657-1.627.887-3.342 1.543-1.59.61-1.8.456-3.186.952.01-1.252.06-1.435.06-3 0-1.403.312-1.78.014-2.653.694-.256.945-.55 2.056-.986 1.5-.59 1.454-.71 2.955-1.3 1.5-.59 1.453-.708 2.95-1.3 1.5-.59 1.474-.653 2.972-1.243s1.648-.205 3.146-.795c1.496-.59 2.005-1.62 2.722-1.135.8.54.33 1.723.33 3.668 0 1.466-.03 1.83-.044 2.75-.056.023-.1.045-.16.07zm-41.11.166c-.002-1.103-.008-1.41-.008-2.992 0-1.942-.633-2.76-.11-3.725.36-.666 1.38.374 2.882.966l3.002 1.183c1.5.59 1.58.38 3.08.97s1.443.73 2.94 1.32c1.5.59 1.554.45 3.052 1.04.89.35 1.194.656 1.623.915-.36 1.097.33 1.565.33 3.092 0 1.766.275 1.766.275 3.533 0 .09.002.155.003.235-.053-.022-.094-.042-.15-.064-1.717-.657-1.677-.764-3.393-1.42-1.714-.657-1.633-.87-3.346-1.526-1.714-.656-1.676-.758-3.39-1.414-1.712-.656-1.872-.235-3.585-.89-1.628-.625-1.726-.656-3.204-1.222zm18.673 2.76c0-1.31.618-1.79.59-2.582.294-.05.628-.11 1.2-.11.642 0 .995.127 1.33.232.007.735.586 1.193.586 2.467 0 1.765-.27 1.765-.27 3.532 0 .31.006.554.016.775-.374.358-.776.635-1.664.635-.795 0-1.24-.113-1.635-.29.034-.294.058-.642.058-1.133 0-1.765-.212-1.765-.212-3.528zm7.672-6.277c1.45-.714 1.375-.87 2.826-1.585s1.358-.907 2.81-1.62c1.45-.715 1.62-.364 3.072-1.078 1.45-.713 1.176-1.84 2.776-1.626.817.11 1.144.51 1.41.953-1.28.51-1.424.602-2.962 1.208-1.69.666-1.59.923-3.28 1.59l-3.382 1.33c-1.69.667-1.608.88-3.298 1.545-1.69.665-1.67.905-3.46 1.198l-.678.116c.284-.208.598-.483 1.142-.837 1.358-.888 1.57-.48 3.025-1.195zM22.09 29.027c1.59-.27 1.447.615 2.893 1.33 1.446.716 1.283 1.048 2.73 1.763 1.443.715 1.5.6 2.942 1.314 1.444.715 1.402.8 2.845 1.514 1.443.714 1.62.35 3.064 1.065.874.433 1.143.85 1.576 1.112-.315-.036-.662-.085-1.105-.157-1.795-.295-1.674-.885-3.367-1.552-1.694-.667-1.718-.606-3.41-1.273-1.692-.666-1.583-.945-3.274-1.61-1.69-.667-1.71-.613-3.402-1.28-1.586-.624-1.74-.566-3.148-1.105.317-.494.686-.956 1.656-1.12zm8.915 22.758c-1.53-.602-1.608-.398-3.138-1-1.53-.603-1.472-.748-3-1.35-1.53-.603-1.478-.736-3.006-1.338-1.526-.602-2.836-.362-3.236-.938-.512-.736.235-2.01.235-3.955 0-.95.03-1.437.063-1.913.332.143.712.302 1.366.552 1.593.61 1.67.403 3.265 1.014 1.592.61 1.488.883 3.08 1.493 1.594.61 1.585.634 3.18 1.245 1.593.61 1.73.247 3.324.857 1.56.597 1.573.687 3.07 1.264.003.16.006.333.006.534v3.526c0 1.078-.34 1.534-.412 2.077-.546-.073-.92-.16-1.862-.546-1.523-.626-1.405-.92-2.937-1.522zm7.407 2.486c.146-.73-.145-1.236-.367-2.533-.282-1.64-.447-1.75-.465-3.235.48.382.833.695 1.873.694.95 0 1.38-.115 1.837-.36.008 1.203.04 1.396.04 2.938 0 1.418-.75 1.862-.607 2.78-.938.057-1.426-.086-2.31-.283zm21.976-7.045c-.444.683-1.812.302-3.344.906-1.53.604-1.507.666-3.04 1.27-1.528.602-1.437.836-2.966 1.438s-1.63.344-3.158.946-1.377.99-2.906 1.592c-.93.366-1.29.585-1.795.757.052-.673-.366-1.093-.52-2.325-.218-1.753.413-1.806.413-3.572V47.8c1.17-.6 1.392-.416 2.854-.976 1.595-.61 1.453-.986 3.05-1.596 1.594-.61 1.767-.155 3.362-.765 1.594-.61 1.518-.81 3.113-1.42 1.593-.61 1.636-.5 3.228-1.11.756-.288 1.155-.43 1.537-.567-.015.456-.028.938-.028 1.847 0 1.94.674 3.278.198 4.012z"/><g fill="#FF4B00"><path d="M13.122 59.402c-1.183-1.647-.412-3.247 1.114-4.343 1.64-1.18 3.465-1.087 4.613.513.378.527.713 1.32.502 1.78-.042.078-.098.155-.18.214-.308.222-.7.085-.88-.167-.06-.08-.102-.174-.113-.275-.04-.28-.156-.54-.355-.817-.57-.796-1.646-.872-2.507-.254-.04.03-.073.053-.108.09.546-.01 1.27.294 1.695.887.7.975.714 2.28-.438 3.108-1.055.757-2.46.498-3.345-.736zm2.555-1.994c-.292-.405-.758-.66-1.27-.688-.484.422-.85 1.128-.31 1.883.45.625 1.108.668 1.49.395.57-.41.463-1.07.09-1.59zM17.685 64.496c-1.414-1.285-.88-3.138.278-4.41 1.157-1.273 2.944-1.974 4.357-.688 1.406 1.278.886 3.13-.272 4.402-1.157 1.273-2.958 1.974-4.363.696zm3.788-4.167c-.71-.647-1.616-.187-2.444.724-.828.91-1.208 1.863-.497 2.51.703.64 1.615.17 2.443-.74.827-.91 1.2-1.856.497-2.495zM24.68 68.896c-.445.058-.977-.03-1.558-.384-1.272-.773-1.643-2.226-.87-3.498.77-1.266 2.228-1.607 3.5-.834.642.39 1.1.982 1.077 1.425-.004.08-.028.16-.07.228-.176.29-.553.296-.792.15-.103-.062-.19-.15-.247-.267-.11-.22-.288-.41-.502-.54-.658-.4-1.41-.2-1.846.517s-.27 1.485.388 1.885c.223.135.464.2.725.194.13-.003.24.028.342.09.266.162.407.506.236.787-.08.128-.22.227-.384.246zM32.712 72.39c-.333-.107-.515-.46-.407-.793l.757-2.36c.137-.43.044-.795-.45-.954-.43-.137-.873.036-1.124.23l-.82 2.56c-.107.334-.46.515-.812.402-.333-.107-.515-.46-.407-.792l.756-2.36c.137-.43.044-.796-.45-.954-.42-.136-.863.037-1.127.236l-.818 2.552c-.107.333-.46.515-.802.404-.333-.106-.515-.46-.408-.792l1.13-3.522c.104-.324.455-.505.808-.393.324.104.505.456.4.78l-.02.066c.28-.215 1.028-.457 1.733-.23.676.216 1.004.668 1.007 1.246.4-.334 1.145-.557 1.85-.33.848.27 1.21.88.906 1.822l-.89 2.78c-.11.333-.462.514-.814.4zM43.375 72.96c-.22.007-.443-.095-.58-.28L41.2 70.54l-1.434 2.267c-.123.194-.33.303-.55.31-.36.015-.7-.242-.715-.652-.004-.14.03-.27.106-.395l1.606-2.474-1.665-2.198c-.084-.106-.118-.226-.124-.355-.013-.34.244-.69.664-.706.23-.01.454.093.602.287l1.436 1.968 1.263-2.06c.12-.206.336-.334.576-.343.39-.017.722.28.735.642.006.13-.03.27-.104.384l-1.483 2.3 1.79 2.343c.085.116.13.244.136.385.01.308-.235.698-.665.714zM53.053 70.398l-3.634 1.308c-.33.12-.73-.046-.865-.422-.078-.217-.053-.47.08-.667 1.72-2.576 2.226-3.534 1.962-4.27-.196-.545-.794-.64-1.312-.452-.5.18-.882.477-1.15.85-.093.13-.2.21-.343.262-.31.112-.68-.054-.8-.393-.034-.094-.04-.198-.014-.304.128-.588 1.06-1.307 1.852-1.59 1.337-.482 2.672-.11 3.122 1.14.386 1.074-.163 2.324-1.365 4.097l2.043-.735c.31-.11.67.058.78.368.122.338-.046.697-.357.808zM57.076 68.347c-.33.188-.766.07-.954-.26l-2.09-3.64-.267 1.04c-.04.15-.138.264-.26.334-.268.154-.64.068-.804-.218-.073-.13-.096-.29-.052-.453l.56-2.12c.055-.203.2-.39.4-.506.39-.224.897-.1 1.12.29l2.623 4.567c.19.33.073.768-.274.967zM62.004 64.23c-.098.438-.36.907-.892 1.333-1.162.935-2.655.787-3.59-.375-.928-1.153-.752-2.644.41-3.578.585-.47 1.3-.698 1.708-.526.075.03.14.08.19.142.214.266.09.622-.13.798-.093.075-.205.127-.334.142-.246.03-.484.132-.68.29-.6.48-.67 1.257-.144 1.912.527.655 1.306.76 1.906.278.202-.163.346-.368.43-.615.042-.123.108-.216.202-.29.242-.195.613-.212.82.046.097.115.143.284.104.444zM68.027 57.902c-.216.276-.608.325-.885.11l-1.956-1.525c-.355-.277-.73-.316-1.05.094-.277.356-.27.833-.174 1.135l2.122 1.654c.276.214.325.607.098.9-.216.274-.608.323-.885.108l-1.956-1.525c-.354-.276-.73-.315-1.05.095-.27.347-.26.823-.165 1.14l2.114 1.647c.275.216.324.608.103.893-.216.276-.608.325-.885.11l-2.92-2.276c-.267-.21-.315-.602-.088-.894.21-.27.602-.317.87-.108l.056.043c-.106-.336-.075-1.123.38-1.707.437-.56.974-.712 1.518-.516-.175-.492-.128-1.268.327-1.852.548-.702 1.245-.83 2.025-.222L67.93 57c.276.217.325.61.097.902z"/></g><g fill="#FF4B00"><path d="M18.018 24.663l-1.06 1.49c-.256.36-.76.444-1.117.19l-4.13-2.94c-.358-.255-.443-.757-.188-1.115l1.06-1.49c1.213-1.704 3.138-2.114 4.775-.95 1.637 1.166 1.872 3.112.66 4.815zm-4.416-3.142l-.702.986 3.397 2.418.7-.985c.767-1.077.44-2.255-.48-2.91-.962-.685-2.12-.625-2.915.49zM21.268 20.896c-.27.267-.723.264-.99-.007l-3.782-3.842c-.268-.27-.264-.724.02-1.005.272-.267.725-.263.99.008l3.784 3.842c.267.27.263.724-.022 1.004zM27.808 15.975c-.326.215-.77.123-.983-.203l-2.21-3.36.952 4.726c.032.158-.033.332-.192.437-.142.094-.327.084-.46-.01l-3.96-2.748 2.213 3.37c.21.317.117.76-.218.98-.317.21-.76.117-.97-.2l-2.873-4.373c-.24-.368-.138-.867.23-1.108.504-.416 1.05-.606 1.568-.254l2.994 2.08-.72-3.574c-.08-.413.086-.834.453-1.076.48-.435 1.156-.59 1.52-.04l2.866 4.365c.214.325.123.768-.212.988zM33.247 13.942l-3.193 1.08c-.417.14-.874-.085-1.015-.502l-1.626-4.804c-.14-.417.085-.874.502-1.015l3.193-1.08c.31-.104.667.07.78.402.107.322-.068.678-.38.783l-2.606.88.45 1.338 2.54-.86c.314-.104.67.07.78.402.11.322-.066.678-.38.783l-2.538.858.483 1.432 2.604-.882c.313-.105.668.07.773.383.118.34-.057.696-.37.802zM39.595 13.13c-.27.026-.55-.078-.74-.29l-3.327-3.762.345 3.697c.035.378-.254.727-.652.765-.377.035-.726-.254-.762-.633l-.48-5.16c-.045-.47.312-.945.84-.994.3-.028.61.083.814.315l3.188 3.582-.33-3.537c-.035-.38.254-.728.652-.765.38-.035.728.254.763.633l.486 5.212c.043.45-.287.892-.795.94zM43.75 13.528c-.962-.134-2.106-.615-2.397-1.21-.056-.11-.078-.233-.062-.353.053-.376.418-.608.755-.562.13.018.263.066.36.16.403.37.94.656 1.583.745.772.107 1.198-.197 1.25-.573.162-1.17-3.752-.894-3.407-3.38.154-1.1 1.23-1.878 2.786-1.662.752.104 1.866.51 2.166 1.047.065.11.088.234.072.354-.053.376-.455.583-.79.536-.12-.017-.235-.062-.344-.148-.42-.32-.92-.51-1.404-.578-.604-.084-.978.137-1.032.533-.146 1.05 3.744.872 3.402 3.338-.167 1.208-1.155 2-2.937 1.753zM47.728 14.34c-.364-.11-.578-.51-.468-.872l1.554-5.157c.11-.362.51-.576.89-.46.365.108.58.507.47.87l-1.555 5.157c-.11.365-.51.578-.892.462zM52.247 16.235c-1.784-.924-2.43-2.877-1.506-4.662.925-1.785 2.892-2.39 4.677-1.466 1.793.928 2.438 2.882 1.515 4.667-.924 1.785-2.89 2.39-4.685 1.46zm2.59-5.01c-1.092-.564-2.225-.092-2.8 1.018-.568 1.102-.304 2.308.79 2.873 1.09.564 2.238.09 2.808-1.013.574-1.11.295-2.313-.797-2.877zM59.584 21.618c-.2-.182-.312-.46-.28-.744l.544-4.987-2.502 2.74c-.256.28-.708.3-1.004.03-.28-.256-.3-.708-.045-.988l3.494-3.827c.317-.347.91-.402 1.3-.044.223.2.35.507.314.812l-.506 4.767 2.395-2.623c.256-.28.708-.3 1.003-.03.28.255.302.707.045.988l-3.526 3.862c-.303.332-.853.385-1.23.04zM62.076 24.974c-.545-.802-.954-1.975-.707-2.59.042-.113.12-.214.22-.28.312-.214.73-.1.92.183.074.107.128.24.123.376-.004.546.143 1.136.508 1.673.44.646.95.758 1.265.544.976-.662-1.85-3.384.226-4.793.92-.623 2.22-.346 3.1.953.428.628.872 1.728.675 2.31-.038.122-.115.222-.214.29-.313.213-.736.053-.928-.23-.067-.098-.11-.214-.12-.353-.042-.526-.235-1.024-.51-1.43-.343-.504-.757-.634-1.088-.41-.877.597 1.86 3.365-.198 4.764-1.01.685-2.26.482-3.27-1.006z"/></g></svg>