<svg xmlns="http://www.w3.org/2000/svg" width="148" height="35" viewBox="0 0.1 148 35" enable-background="new 0 0.1 148 35"><path fill="#fff" d="M25.6 17.7c0-3.3-2.7-6-6-6s-6 2.7-6 6 2.7 6 6 6 6-2.7 6-6m-6 9.5c-5.3 0-9.6-4.3-9.6-9.6S14.3 8 19.6 8s9.6 4.3 9.6 9.6-4.3 9.6-9.6 9.6M19.6 19.7c-1.1 0-2-.9-2-2s.9-2 2-2 2 .9 2 2-.9 2-2 2"/><path fill="#fff" d="M10.1 10.2c-.3 0-.5-.1-.7-.3L6.6 7.1c-.4-.4-.4-1 0-1.4s1-.4 1.4 0l2.8 2.8c.4.4.4 1 0 1.4-.1.2-.4.3-.7.3zM19.6 6.1c-.6 0-1-.4-1-1v-4c0-.6.4-1 1-1s1 .4 1 1v4c0 .6-.4 1-1 1zM34.8 34.9c-.5 0-1-.2-1.4-.6l-5.6-5.6c-.8-.8-.8-2 0-2.8s2-.8 2.8 0l5.6 5.6c.8.8.8 2 0 2.8-.4.4-.9.6-1.4.6zM28.9 10.4c-.3 0-.5-.1-.7-.3-.4-.4-.4-1 0-1.4L31 5.9c.4-.4 1-.4 1.4 0s.4 1 0 1.4l-2.8 2.8c-.2.2-.5.3-.7.3zM41.8 16l-2.8.9c-.3-1-.8-1.6-2-1.6-1 0-1.5.4-1.5 1 0 .9 1 1 2.4 1.3 2 .4 4.1.8 4.1 3.6 0 2.7-2.3 4-5.2 4-3 0-4.6-1.3-5-3.2l2.8-.9c.3.9.7 1.8 2.3 1.8 1.1 0 1.7-.4 1.7-1.1 0-.9-.8-1-2.2-1.3-2-.4-4.2-.9-4.2-3.7 0-2.6 2.3-3.8 4.9-3.8 2.7-.1 4.2 1 4.7 3zM51.7 24.3c-.6.4-2 .8-3.4.8-2.5 0-3.7-1.1-3.7-3.8v-5.7h-1.8v-2.5h1.8V9.7l3.4-.5v3.9h3.1v2.5H48v5.2c0 1 .3 1.6 1.4 1.6.7 0 1.5-.3 1.9-.5l.4 2.4zM56.6 24.9h-3.4V13.1h2.9l.2 1.1c.9-.8 2-1.4 3.6-1.4 1.4 0 2.5.4 3 1.5.8-.9 2.1-1.5 3.6-1.5 2.3 0 3.5 1.3 3.5 3.9v8.1h-3.4v-7.5c0-1.1-.3-1.7-1.3-1.7-.6 0-1.5.4-1.9.8v8.4H60v-7.5c0-1.1-.3-1.7-1.3-1.7-.7 0-1.6.4-2 .8l-.1 8.5zM70.4 13.1h3.7l2.5 8.2h.1l2.4-8.2h3.5c-1.6 4.3-3.2 9-4.7 12.9-1 2.8-2 3.9-4.4 3.9-.9 0-2.1-.2-2.6-.5l.2-2.5c.6.2 1.3.4 1.8.4.8 0 1.3-.4 1.7-1.3l.4-.9-4.6-12zM83.4 25.1c-1.4 0-2.1-.7-2.1-2s.7-2 2.1-2 2.1.7 2.1 2-.7 2-2.1 2zM100.7 24.9h-2v-7.5c0-1.6-.6-2.5-2.2-2.5-1.3 0-2.8.9-3.4 1.4v8.6h-2V13.3h1.8l.1 1.4c1.1-.9 2.6-1.6 4.2-1.6 2.5 0 3.6 1.4 3.6 4l-.1 7.8zM112 22.7c0 .6.1.9.7.9.2 0 .4 0 .7-.1l.1 1.3c-.5.2-1 .4-1.6.4-1.1 0-1.7-.6-1.8-1.4-.9.9-2.1 1.4-3.7 1.4-2.9 0-3.4-2-3.4-3.1 0-3.1 2.7-3.9 6-3.9h1V17c0-1.5-.4-2.4-2.3-2.4-1.6 0-2.2.6-2.5 1.9l-1.8-.3c.4-2.2 1.8-3.2 4.4-3.2 2.9 0 4.1 1.1 4.1 4v5.7h.1zm-2-3.1c-.3 0-.7-.1-1.2-.1-1.6 0-3.7.2-3.7 2.1 0 1 .4 1.8 1.9 1.8 1.2 0 2.3-.6 3-1.3v-2.5zM117.2 24.9h-2V13.3h1.8l.1 1.3c1.1-.9 2.4-1.6 3.9-1.6s2.5.5 2.9 1.6c1.1-.9 2.4-1.6 4-1.6 2.4 0 3.3 1.4 3.3 3.9v7.9h-2v-7.6c0-1.6-.3-2.4-1.8-2.4-1.1 0-2.4.7-3.1 1.3v8.8h-2v-7.6c0-1.6-.3-2.4-1.8-2.4-1.2 0-2.6.8-3.2 1.4l-.1 8.6zM133.3 19.1c0-4.2 2.5-6.1 5.4-6.1 3.2 0 4.6 2.1 4.6 5 0 .4 0 1-.1 1.5h-7.8c.1 2.9 1.4 3.9 3.2 3.9 1.6 0 2.4-.7 2.7-2l1.8.4c-.5 2.3-2.3 3.4-4.6 3.4-4-.1-5.2-2.9-5.2-6.1zm7.9-1.2c0-2.1-.8-3.2-2.6-3.2-1.5 0-3 .9-3.1 3.2h5.7zM3.5 21.9h4l1 2.9H0V9.7l3.5-.5v12.7z"/></svg>