<svg xmlns="http://www.w3.org/2000/svg" width="60" height="60" viewBox="0 0 60 60"><path fill="#FF4B00" d="M41 25.5c0 .7.5 1.2 1.3 1.2.7 0 1.1-.5 1.1-1.2s-.3-1.3-1.1-1.3-1.3.5-1.3 1.3M18.2 25.4c0 .7.9 1.3 1.6 1.3.7 0 1.5-.6 1.5-1.3 0-.7-.8-1.6-1.5-1.6-.8 0-1.7.8-1.6 1.6"/><path fill="#FF4B00" d="M22.7 31.2c-.1 1.1-1.8 1.9-4 1.7-2.2-.2-3.9-1.4-3.8-2.5.1-1.1 1.9-1.6 4.1-1.3 2.1.1 3.7 1 3.7 2.1zM46.9 30.4c.1 1.1-1.4 2.1-3.6 2.3-2.2.2-4-.4-4.1-1.5-.1-1.1 1.6-2.4 3.8-2.7 2.3-.2 3.9.8 3.9 1.9zM30.9 23.8c-.8-.1-1 .8-1.7 2s-1.5 2-1.1 2.5c.4.5 1.4-.3 2.8-.3s2.7.9 2.9.3c.2-.5-1-1.1-1.4-2.4-.5-1.3-1-2-1.5-2.1z" opacity=".2"/><path fill="#FF4B00" d="M51.8 25.4c.2-.9.2-2.1.2-3.4.1-1.1.1-2.2 0-3.4-.1-1.1-.3-2.2-.6-3.4-.4-1.1-.7-2.2-1.3-3.2-.5-1-1.1-2-1.9-2.9-.7-.8-1.8-1.3-2.8-2-1.2-.8-2.1-1.9-3.1-2.3-1.3-.5-2.7-.7-3.8-.8-1.4-.1-2.7 0-3.9.3-1.7.4-2.9.7-3.6 1.1-.7-.4-2-.7-3.6-1-1.3-.4-2.6-.4-4-.3-1.2.1-2.4.3-3.8.8-1.1.4-2 1.3-3.2 2.2-1 .7-2.2 1.1-2.9 1.9-.8.9-1.2 2-1.8 3-.6 1-1.1 2.1-1.4 3.1-.4 1.2-.9 2.2-1 3.3-.1 1.2.1 2.4.1 3.5.1 1.3.2 2.4.4 3.3-1.8.4-2.7 2.1-2.7 4 0 1.8.8 3.5 2.4 4 0 1.1.5 2.2.6 3.5.1 1.2.2 2.4.5 3.7.3 1.2.4 2.5.8 3.6s.9 2.3 1.6 3.4c.6 1.1 1.7 1.9 2.5 2.8.9 1 1.8 1.9 2.9 2.7 1.1.8 2.3 1.2 3.6 1.7 1.2.5 2.3 1.4 3.7 1.6 1.3.2 2.6.4 4 .4v-.1c.5 0 .5.2 1 .2s.5-.3 1-.3v.1c1.4 0 2.7-.3 4-.5 1.4-.3 2.5-.9 3.7-1.4 1.3-.5 2.5-.9 3.6-1.7 1.1-.8 1.9-1.8 2.8-2.8.8-.9 1.5-1.9 2.1-3 .6-1.1 1.1-2.2 1.6-3.3.5-1.2.9-2.3 1.2-3.5.3-1.3.5-2.5.7-3.6.2-1.4.4-2.6.4-3.7 1.7-.5 2.6-2 2.6-3.8.1-1.8-.9-3.4-2.6-3.8zM36.4 39.2c-.8.5-1.8.9-2.7 1.2-.9.3-1.8.6-2.8.6-1 0-1.8-.4-2.8-.6-.9-.2-1.9-.7-2.8-1.1-.5-.3-.8-1-.5-1.5.3-.5 1-.5 1.5-.2.9.5 1.9 1.2 2.9 1.4 1 .2 2.2.2 3.2 0s2.1-.6 3-1.2c.5-.3.7-.2 1 .3.4.3.4.8 0 1.1zm11.5-6c-1.3 1.5-2.8 1.6-4.1 1.6-1.5 0-3.3-.2-5.2-.7-1.1-.3-2.2-.6-3.4-.9-1.1-.2-2.2-.4-3.4-.5v-.1c-.5 0-.5-.2-1-.2s-.5.4-1 .4c-1.2.1-2.4 0-3.5.2-1.2.2-2.3.6-3.4.9-1.9.5-3.7.7-5.2.7-1.3 0-2.7 0-4-1.5-.7-.9-1.5-2.1-2.2-4 0-1.3.3-2.5.5-3.7.3-1.2.3-2.5.8-3.7.5-1.1 1.6-2 2.2-3 .7-1 1.2-2.2 2.1-3 .9-.9 1.9-1.6 2.9-2.3 1-.7 2.3-1 3.4-1.4 1.1-.5 2.2-1 3.5-1.3 1.2-.2 2.4-.3 3.7-.3.3 0 .9.1 1.2.1-1.4 1.6-1.9 1.1-3.4 2.6s-1.9 1.2-2.6 3.2c-.3.9.2 1.5 1.2 1.3 1.6-.4 1.3-1 2.5-2.2 1.2-1.2 1.2-1.1 2.4-2.3 1.2-1.2.8-1.7 2.1-2.7.7.1 1.4.4 2.1.6-1.1 1.5-1.2 1.4-2.5 2.8-1.3 1.3-2.5.6-3.1 2.4-.3 1 .8 2.1 1.8 1.8 2-.7 1.5-1.7 2.9-3.2 1.5-1.5 1.4-1.5 3-2.8.6.2.7.1 1.2.4-1.6 2-2.4 1.5-3.4 3.9-.4.9.4 1.7 1.4 1.6 1.4-.2 1-1.1 2-2.1s.6-1.7 1.9-2.2c1 .7 2 1.7 2.8 2.5.8.9 1.8 1.7 2.5 2.7.7 1 1.3 2.1 1.7 3.2.5 1.1.9 2.3 1.1 3.5.2 1.2.2 2.5.2 3.7-.2 1.8-1 3.2-1.7 4z"/></svg>