<svg xmlns="http://www.w3.org/2000/svg" width="60" height="60" viewBox="0 0 60 60"><path fill="#FF4B00" d="M30.9 42c-1.3 0-2.5-.8-3.8-1-1.3-.2-2.6-.1-3.8-.6-1.2-.5-2.4-1-3.5-1.7-1-.7-1.8-1.9-2.7-2.7-.9-.9-2-1.7-2.7-2.7-.8-1-1.7-2-2.2-3.2-.5-1.1-.9-2.8-1.2-4.1-.4 1.6-.3 3.7-.3 5.4 0 1.2.1 2.4.3 3.5.2 1.2.3 2.4.8 3.5.4 1.1.9 2.2 1.5 3.2s1.2 2.1 1.9 3c.8.9 1.7 1.7 2.6 2.5.9.8 2.1 1.2 3.1 1.8 1 .6 1.9 1.5 3 1.9 1.1.4 2.3.8 3.5 1 1.2.2 2.4 0 3.6 0 1.2 0 2.4-.4 3.5-.6 1.2-.2 2.4-.2 3.5-.6 1.1-.4 2.3-.8 3.3-1.4 1-.6 1.7-1.7 2.6-2.5.9-.8 2.1-1.3 2.8-2.2.8-.9 1-2.2 1.6-3.2.6-1 1.3-2 1.7-3.1.4-1.1.8-2.2 1-3.4.2-1.2.1-2.3.1-3.6 0-1.8-.3-3.2-.7-4.9-.3 1.3-.7 2.2-1.3 3.3-.6 1.2-1 2.4-1.7 3.4-.8 1-1.9 1.7-2.8 2.6-.9.9-1.6 2.1-2.7 2.8-1.1.7-2.5.8-3.7 1.3-1.2.5-2.3 1-3.6 1.3-1.1.5-2.4 1-3.7 1z" opacity=".2"/><path fill="#FF4B00" d="M30.9 49.7c-1.3 0-2.5-.3-3.7-.5-1.2-.2-2.6-.1-3.7-.5-1.2-.4-2.2-1.1-3.3-1.7-1.1-.6-2.2-1.3-3.1-2.1-1-.8-2-1.6-2.8-2.5-.8-1-1.1-2.3-1.7-3.4-.6-1.1-1-2.2-1.4-3.4-.4-1.2-.8-2.3-1-3.5-.2-1.2-.8-2.4-.8-3.7 0-1.3.5-2.5.7-3.7.2-1.2.3-2.5.8-3.7.4-1.2 1.2-2.2 1.9-3.2.6-1.1 1.3-2.1 2.1-3 .8-1 1.6-1.8 2.6-2.6s1.9-1.6 2.9-2.3c1.1-.6 2.2-1 3.4-1.5 1.2-.4 2.3-.8 3.6-1 1.2-.2 2.4-.1 3.7-.1 1.3 0 2.5 0 3.7.2 1 .2 2.2.5 3.3.9 1.2.4 2.4.7 3.5 1.3 1.1.6 2.1 1.4 3 2.2 1 .8 1.7 1.8 2.5 2.7.8 1 1.3 2 2 3.1.6 1.1 1.4 2.1 1.8 3.2.4 1.2.9 2.3 1.1 3.6.2 1.2.5 2.5.5 3.7 0 1.3 0 2.6-.2 3.8-.2 1.2-1 2.3-1.5 3.5-.4 1.2-.8 2.4-1.4 3.5-.6 1.1-1.3 2.2-2.1 3.1-.8 1-1.8 1.8-2.7 2.6-1 .8-1.9 1.7-2.9 2.4-1.1.6-2.4.7-3.6 1.1-1.2.4-2.2 1.2-3.5 1.5-1.2.2-2.5 0-3.7 0zm0-40.9c-1.3 0-2.6 0-3.8.2-1.3.3-2.4 1.1-3.5 1.5-1.2.5-2.4.9-3.4 1.6-1.1.7-2 1.6-2.9 2.5-.9.9-1.5 2-2.2 3.1-.7 1.1-1.8 1.9-2.2 3.1-.5 1.2-1 2.4-1.3 3.7-.2 1.2-.3 2.6-.3 3.9 0 1.3.6 2.5.8 3.7.3 1.3.3 2.6.8 3.7.5 1.2 1.3 2.2 2 3.3.7 1.1 1.3 2.2 2.2 3.1.9.9 1.9 1.8 3 2.5s2.2 1.3 3.4 1.8c1.2.5 2.5.7 3.7 1 1.2.2 2.5.5 3.8.5 1.3 0 2.6-.2 3.8-.4 1.3-.3 2.6-.4 3.7-.9 1.2-.5 2.3-1.2 3.4-1.9s2-1.6 2.9-2.5c.9-.9 1.5-2.1 2.2-3.1.7-1.1 1.4-2.1 1.9-3.3.5-1.2 1-2.4 1.2-3.6.2-1.2.6-2.5.6-3.8 0-1.3-.4-2.6-.6-3.8-.3-1.3-.7-2.4-1.2-3.6-.5-1.2-1.2-2.2-1.9-3.3-.7-1.1-1.6-1.9-2.5-2.8-.9-.9-1.5-2.1-2.6-2.8-1.1-.7-2.3-1.1-3.5-1.6-1.2-.5-2.4-.7-3.7-1-1.3-.4-2.5-.8-3.8-.8z"/><path fill="#FF4B00" d="M30.9 24.3c-.4 0-.9.7-1.7 1.9-.7 1.2-1.6 2.3-1.4 2.7.2.3 1.7 0 3.1 0 1.4 0 2.7.3 3 0 0 0-1.4-1.1-1.8-2.4-.5-1.4-1.2-2.2-1.2-2.2z" opacity=".2"/><path fill="#FF4B00" d="M41.2 24.4c0 .8.5 1.4 1.3 1.4s1.6-.7 1.6-1.4c0-.8-.9-1.1-1.6-1.1-.8.1-1.3.4-1.3 1.1"/><path fill="#FF4B00" d="M41.1 31.1c-1.2 0-2.4-.4-3.4-.9-1-.6-2-1.4-2.6-2.4-.6-1-.6-2.2-.6-3.4 0-1.2.1-2.4.7-3.4s1.7-1.6 2.6-2.2c1-.6 2.1-.7 3.2-.7 1.2 0 2.4-.1 3.4.5s1.6 1.7 2.2 2.6c.6 1 1 2 1 3.2 0 1.2-.4 2.2-1 3.2s-1.1 2.2-2.1 2.8c-.9.5-2.2.7-3.4.7zm0-11c-1.3 0-2.2.4-3.1 1.2-.8.8-1.1 1.8-1.1 3.1s.2 2.4 1 3.2c.8.8 1.9 1.1 3.2 1.1 1.3 0 2.4-.2 3.2-1 .8-.8 1.5-2 1.5-3.2 0-1.2-.9-2.2-1.7-3.1s-1.7-1.3-3-1.3zM18.1 24.3c0 .8.7 1.2 1.5 1.2s1.6-.4 1.6-1.2c0-.8-.8-1.4-1.6-1.4-.8.1-1.5.7-1.5 1.4"/><path fill="#FF4B00" d="M20.9 31.2c-1.2 0-2.3-.7-3.3-1.2-1-.6-1.8-1.4-2.3-2.4-.6-1-.7-2-.7-3.2 0-1.2.3-2.2.8-3.1.6-1 1.3-1.7 2.3-2.2 1-.6 1.9-1 3.1-1 1.2 0 2.4 0 3.3.6 1 .6 1.7 1.5 2.3 2.5.6 1 .7 2.1.7 3.2 0 1.2-.3 2.2-.8 3.2-.6 1-1.1 2.1-2.1 2.7-.9.4-2.1.9-3.3.9zm0-11c-1.3 0-2.4.2-3.2 1-.8.8-1.4 2-1.4 3.2 0 1.3.4 2.6 1.2 3.4.8.8 2.2 1.4 3.4 1.4 1.3 0 2.6-.5 3.4-1.4.8-.8 1.3-2.2 1.3-3.4 0-1.3-.8-2.3-1.6-3.1-.8-.9-1.8-1.1-3.1-1.1z"/><path fill="#FF4B00" d="M23.5 31.6c-.1 1.1-2.2 1.9-4.4 1.7-2.3-.2-4.2-1.5-4.2-2.6.1-1.1 2.2-2 4.5-1.7s4.2 1.5 4.1 2.6zM47 30.8c.1 1.1-1.8 2.1-4 2.4-2.3.2-4.4-.3-4.5-1.5-.1-1.1 1.9-2.5 4.2-2.8 2.2-.2 4.2.8 4.3 1.9z" opacity=".2"/><path fill="#FF4B00" d="M25.1 24.6"/><path fill="#FF4B00" d="M36.4 22.7h-7.2c-1.8 0-1.8-.4-3.6-.4-.6 0-.9-.1-.9-.7s.3-1 .9-1c1.8 0 1.8.3 3.6.3s1.8-.4 3.6-.4 1.8.3 3.6.3c.6 0 .7.2.7.8s-.2 1.1-.7 1.1zM51.2 28.2c0-1.2-.1-2.2-.3-3.3-.2-1.2-.4-2.4-.8-3.5s-1.3-2-1.9-3c-.6-1-1-2.2-1.7-3.1-.8-.9-1.8-1.5-2.7-2.3-.9-.8-1.7-1.7-2.7-2.3-1-.6-2.1-1.3-3.2-1.7-1.1-.4-2.3-.8-3.5-1-1.1-.3-2.3 0-3.5 0 1.3-.1 2.5-.1 3.7-.1 1.3 0 2.6-.2 3.7-.1 1.4 0 2.6 0 3.7.2 1.4.2 2.6.6 3.6 1 1.4.5 2.4 1 3.3 1.7 1 .8 1.6 1.8 2.1 3 .4 1.1 1.1 2.2 1.2 3.6.1 1.2-.5 2.4-.5 3.7-.1 1.2.3 2.5.2 3.8 0 1.1-.6 2.1-.7 3.4zM52.2 28.3c-.9.4-.4.9-1.3.4 0-1.3-.4-2.9-.7-4.1-.3-1.3-.9-2.4-1.4-3.6-.5-1.2-1.1-2.3-1.8-3.4s-1.4-2.2-2.2-3.1c-.9-.9-2.1-1.5-3.1-2.2-1.1-.7-2.1-1.5-3.3-2-1.2-.5-2.5-.5-3.8-.8-1.2-.2-2.3-.6-3.6-.6-.6-.8-.8-1.1-.3-2 1.2-.1 2.5.1 3.6 0 1.2 0 2.4-.6 3.5-.5 1.2 0 2.4.3 3.5.4 1.3.1 2.3.7 3.4.9 1.2.3 2.3.6 3.3 1 1.1.6 2.3.9 3 1.8.9 1 1.2 2.4 1.5 3.6.4 1.2.6 2.4.6 3.8 0 1.2-.2 2.5-.3 3.9-.1 1.3.1 2.6-.1 3.9-.2 1-.4 1.7-.5 2.6zM39.3 8.7c1.1.5 2.4.9 3.4 1.6 1 .6 1.5 1.8 2.4 2.6.9.8 1.9 1.4 2.6 2.3.7.9 1.3 1.9 1.9 2.9.6 1 1.1 2.3 1.5 3.4.1-1.1.1-2.5.1-3.5 0-1.1 0-2.2-.2-3.2-.3-1-1.1-1.8-1.8-2.6s-1.5-1.6-2.7-2.1c-.9-.4-2.1-.4-3.4-.7-1.2-.3-2.5-.6-3.8-.7zM10.4 28.5c0-1.2.5-2.4.7-3.6.2-1.2-.1-2.5.3-3.6s1.2-2.1 1.8-3.1c.6-1 1.6-1.8 2.3-2.7.8-.9 1.1-2.2 2-3 .9-.8 2.1-1.1 3.2-1.7 1-.6 2.2-.9 3.3-1.3 1.1-.4 2.2-.7 3.4-.9 1.2-.2 2.3-.7 3.6-.7-1.4-.1-2.7.1-3.9.1-1.3 0-2.6-.1-3.7 0-1.4 0-2.6-.1-3.7 0-1.4.2-2.7.2-3.7.6-1.4.5-2.3 1.4-3.1 2.1-1 .8-1.6 1.8-2.1 3-.4 1.1-1.2 2.2-1.3 3.5-.1 1.2 0 2.5 0 3.8.1 1.2.3 2.4.4 3.7.1 1.2.4 2.5.5 3.8zM9.6 28.2c-.1-.9-.5-1.5-.6-2.4-.1-1.3.2-2.7.1-3.9-.1-1.4-.6-2.7-.6-3.9 0-1.4.7-2.6 1.1-3.8.4-1.3.7-2.5 1.6-3.5.7-.8 1.7-1.5 2.8-2 .9-.5 2-1 3.2-1.3 1-.2 2.2-.3 3.5-.4 1.1-.1 2.2-.4 3.5-.4 1.1 0 2.2.2 3.5.3 1.1 0 2.4.1 3.6.2.5.9.1 1.1-.5 1.9-1.3 0-2.2.6-3.4.9-1.3.3-2.4.5-3.6 1-1.2.5-2.5.7-3.6 1.4s-2.1 1.5-3 2.4c-.9.9-1.3 2.2-2 3.2-.7 1.1-1.4 2.1-1.9 3.3-.5 1.2-.9 2.3-1.2 3.6-.2 1.2-1.2 2.7-1.2 4-.7.6-.4-.2-1.3-.6zM22.5 8.6c-1.3.1-2.6.6-3.7.8-1.3.2-2.5.1-3.5.5-1.2.5-1.9 1.5-2.6 2.3-.7.8-1.6 1.5-1.9 2.5-.3.9-.1 2.1-.1 3.2 0 1-.1 2 0 3.1.4-1.1.7-2.2 1.3-3.2.6-1 1.3-1.9 2-2.8.7-.9 1.4-1.9 2.2-2.7.9-.8 1.9-1.3 2.9-2 1-.5 2.3-1.2 3.4-1.7zM30.9 34.5c-1 0-2-.2-2.9-.5-.9-.2-1.9-.6-2.8-1-.5-.3-.3-1.1 0-1.6s.7-.7 1.2-.4c.9.5 2 .6 3 .8 1 .2 2.1.4 3.1.3 1-.2 2-.5 3-1.1.5-.3 1-.1 1.3.4.3.5.2 1.1-.2 1.4-.8.5-1.8.7-2.7.9-1.1.3-2.1.8-3 .8zM29.8 15.8c-.3 0-.3-.1-.5-.3-1.5-1.5-1.5-1.5-3-2.9S24.5 11.5 23 10c-.4-.4-.2-1.2.2-1.6s1.1-.4 1.5-.1c1.5 1.5 1.5 1.4 3 2.9s1.3 1.7 2.7 3.1c.4.4.6 1 .2 1.4-.2.4-.5.1-.8.1zM35.1 15.8c-.3 0-.6.2-.8 0-1.1-1.1-1-1.3-2.2-2.4-1.2-1.2-1.3-1.1-2.4-2.2s-1.2-1.1-2.3-2.3c-.4-.4-.1-.9.3-1.3s.8-.6 1.2-.2c1.1 1.1 1 1.3 2.1 2.5 1.2 1.2 1.2 1.1 2.4 2.2l2.4 2.2c.4.4.4.9 0 1.3-.3.3-.5.2-.7.2zM24.6 15.9c-.2 0-.4 0-.6-.2-1.1-1-1.4-.7-2.5-1.7s-1.1-1-2.2-2.1c-.4-.4 0-1 .4-1.4.4-.4.6-.4 1 0 1.1 1 1.2.9 2.3 1.9 1.1 1 1.4.7 2.5 1.7.4.4.2 1.2-.2 1.6-.2.2-.5.2-.7.2z"/></svg>