<svg xmlns="http://www.w3.org/2000/svg" width="60" height="60" viewBox="0 0 60 60"><path fill="#FF4B00" d="M30.9 42.7c-1.3 0-2.5-.7-3.7-.9-1.3-.2-2.4-.6-3.6-1-1.2-.5-2.5-.6-3.6-1.3-1.1-.7-1.8-1.8-2.7-2.7-.9-.9-1.8-1.7-2.6-2.7-.7-1-1.2-2.2-1.8-3.3-.5-1.1-1-1.9-1.3-3.2-.4 1.6-.5 3-.5 4.7 0 1.2-.2 2.4 0 3.5.2 1.2.6 2.3 1 3.3.4 1.1.8 2.2 1.3 3.2.6 1 1.3 1.9 2.1 2.8.8.9 1.6 1.7 2.5 2.4.9.7 1.8 1.4 2.8 2 1 .6 2 1.1 3.1 1.5 1.1.4 2.2 1 3.3 1.2 1.1.2 2.3.2 3.5.2 1.2 0 2.3-.3 3.5-.5 1.2-.2 2.3-.5 3.4-.9s2.2-.9 3.2-1.5 2.1-1.1 3-1.8c.9-.7 1.3-2 2.1-2.9.7-.9 1.5-1.7 2.1-2.7.6-1 1.1-2 1.5-3.1.4-1.1.5-2.2.7-3.4.2-1.1.5-2.2.5-3.4 0-1.7-.3-3.1-.7-4.7-.3 1.2-.3 2.3-.8 3.4s-1.4 2.2-2.1 3.2c-.7 1-1.7 1.8-2.7 2.7-.9.9-2 1.4-3.1 2.1-1.1.7-2 1.5-3.2 1.9-1.2.5-2.4.7-3.6.9-1.1.4-2.4 1-3.6 1z" opacity=".2"/><path fill="#FF4B00" d="M40.9 25.5c0 .7.6 1.2 1.3 1.2.7 0 1.7-.4 1.7-1.2 0-.7-.9-1.5-1.7-1.5-.7 0-1.4.8-1.3 1.5M18.1 25.4c0 .7.9 1 1.6 1 .7 0 1.1-.3 1.1-1s-.3-1.5-1.1-1.5c-.7 0-1.6.8-1.6 1.5"/><path fill="#FF4B00" d="M22.7 31.2c-.1 1.1-1.9 2.1-4.1 1.9s-3.7-1.6-3.6-2.7 1.8-2.1 4-1.9c2.2.2 3.8 1.6 3.7 2.7zM47.4 30.4c.1 1.1-1.9 2-4.1 2.2s-4.1-.2-4.2-1.3c-.1-1.1 1.7-2.3 3.9-2.5 2.3-.2 4.4.5 4.4 1.6z" opacity=".2"/><path fill="#FF4B00" d="M30.9 34.8c-1 0-1.9-.1-2.9-.3-.9-.2-1.8-.7-2.6-1.2-.5-.3-.6-.9-.4-1.3.3-.5.7-.4 1.2-.1.9.5 2.1.6 3.1.8 1 .2 2.1.3 3.1.1 1-.2 2.2-.3 3.1-.8.5-.3 1.1-.5 1.3 0 .3.5 0 1.3-.4 1.6-.8.5-1.7 1-2.7 1.2h-2.8z"/><path fill="#FF4B00" d="M10.7 29.3c0-1-.1-2.1 0-3.1.2-1 .6-2 .9-3l.1.1c1.2 0 2.4-.2 3.6-.4 1.2-.2 2.4-.5 3.5-.9s2.2-1 3.2-1.6c1-.6 2-1.3 2.9-2.1.9-.8 1.8-1.6 2.6-2.5.7-.9 1.3-2 1.9-3.1.6-1 1.1-2.2 1.5-3.4-1.1.2-2.4.5-3.5.8-1.1.3-2.2.8-3.3 1.3-1.1.5-2.3.7-3.3 1.3-1 .6-2.1 1.1-3.1 1.8-.9.7-1.8 1.6-2.7 2.4-.9.8-1.7 1.7-2.4 2.6-.7.9-1 2.2-1.6 3.2-.6 1-.9 2.1-1.3 3.2s-.9 2.2-1 3.3c-.1 1.3.3 2.5.5 3.7.2 1.2.2 2.4.7 3.6.4 1.1.7 2.4 1.4 3.5.7 1 1.8 1.7 2.8 2.5.9.8 1.9 1.5 2.9 2.2 1 .6 1.9 1.7 3 2.2 1.1.5 2.3.4 3.5.7-1.1-.4-2-.6-3-1.2s-2-1.1-2.9-1.9c-.9-.7-1.6-1.7-2.3-2.6-.7-.9-1.2-1.9-1.8-2.9-.6-1-1.2-1.9-1.6-3-.4-1.1-.4-2.2-.6-3.4-.2-1-.6-2.1-.6-3.3zM58.8 29.4c-.1-1.2-.1-2.3-.4-3.5-.3-1.1-.8-2.2-1.4-3.2-.5-1-1.4-1.8-2.2-2.7-.7-.9-1.3-1.9-2.2-2.7-.8-.8-1.6-1.6-2.6-2.3-.9-.7-1.9-1.3-2.9-1.9-1-.6-2-1.3-3-1.7-1.1-.5-2.3-.5-3.4-.9-1.1-.3-2.2-.9-3.3-1-1.2-.2-2.3-.2-3.5-.2-1 0-2.3 0-3.4.2.4 1.1 1.4 2.3 2 3.3.6 1.1 1.1 2.1 1.8 3.1.7.9 1.6 1.8 2.5 2.6.9.8 1.6 1.8 2.7 2.4 1 .6 2.2 1.2 3.3 1.6 1.1.4 2.4.2 3.6.5 1.2.2 2.3.8 3.5.8l.3-.4c.3 1 .2 2.1.4 3.1s.6 2 .6 3c0 1.2-.5 2.3-.7 3.4-.2 1.1-.4 2.2-.8 3.3-.4 1.1-1 2-1.5 3-.6 1-1.1 1.9-1.8 2.8-.7.9-1.2 2.1-2 2.8-.9.7-2.1 1-3.1 1.6-1 .6-1.9 1.1-3 1.5-1 .4-2.1.8-3.2 1-1.1.2-2.2.7-3.3.8.7 0 1.5-.4 2.2-.4 1.3 0 2.4 0 3.6-.1 1.2-.1 2.5 0 3.6-.3 1.2-.2 2.5-.3 3.6-.6 1.2-.4 2.3-.8 3.4-1.3s2.3-1.1 3.2-1.7c1-.7 1.9-1.6 2.7-2.5.9-.9 1.6-1.9 2.2-2.9.7-1 1.2-2.1 1.6-3.2.4-1.1.7-2.3.8-3.5.2-1.4.2-2.6.1-3.8z" opacity=".2"/><path fill="#FF4B00" d="M30.9 50.2c-1.1 0-2.3.2-3.4.1s-2.2-.4-3.3-.6c-1.1-.2-2.3-.2-3.4-.4-1.1-.3-2.1-1-3.1-1.4-1.1-.4-2.1-.8-3.1-1.3-1-.6-2.1-1-2.9-1.7-.9-.7-1.7-1.6-2.4-2.4-.8-.9-1.5-1.9-2.1-2.9-.6-1-1.4-2-1.8-3.2-.4-1.1-.4-2.4-.5-3.6-.1-1.2-.6-2.4-.4-3.6.1-1.2.5-2.4.8-3.5.4-1.1.8-2.3 1.4-3.4.6-1.1 1.2-2.2 1.9-3.1.7-.9 1.7-1.7 2.6-2.6.9-.8 1.9-1.5 2.9-2.2 1-.7 1.8-1.7 2.9-2.3 1-.6 2.3-.8 3.4-1.3s2.3-.8 3.4-1.1c1.2-.4 2.3-1 3.4-1.2 1.2-.2 2.4 0 3.6 0 1.2 0 2.3.2 3.6.4 1.2.2 2.3.4 3.5.8 1.1.3 2.3.7 3.4 1.2s2.2.9 3.3 1.5c1 .6 1.9 1.4 2.9 2.1 1 .7 1.8 1.6 2.7 2.4.9.8 1.7 1.7 2.4 2.6.7 1 1.9 1.6 2.5 2.7.6 1.1.7 2.4 1 3.5.4 1.1.6 2.3.7 3.5.1 1.2.2 2.4 0 3.6-.1 1.2 0 2.5-.4 3.6s-1.1 2.2-1.7 3.2c-.6 1-1.2 2.1-2.1 3-.8.8-1.6 1.6-2.5 2.3-.9.7-2 1-3 1.5s-1.9 1.1-3 1.5c-1 .4-2 1-3.1 1.3-1.1.3-2.2.1-3.4.3-1.1.2-2.2.5-3.3.6-1.2.1-2.3.1-3.4.1zm0-40.1c-1.2 0-2.5.3-3.7.5-1.2.2-2.5.3-3.6.7-1.2.4-2.2 1.1-3.3 1.6-1.1.5-2.4.9-3.4 1.5-1 .7-2 1.5-2.9 2.3-.9.8-1.7 1.9-2.4 2.8-.8 1-1.6 1.9-2.3 2.9-.7 1.1-1.3 2.2-1.7 3.3-.5 1.3-.5 2.6-.6 3.8-.1 1.1-.4 2.1-.2 3.2.1 1.1.7 2 1.1 3 .3 1 .7 2 1.2 2.9.5.9 1.2 1.7 1.9 2.5.8.9 1.7 1.6 2.8 2.3 1 .7 1.9 1.5 3 2s2.1 1.1 3.3 1.5c1.1.4 2.4.4 3.6.6 1.2.2 2.3.8 3.6.9 1.2.1 2.4.3 3.7.3 1.3 0 2.5-.4 3.6-.5 1.2-.1 2.5 0 3.7-.2 1.2-.2 2.5-.4 3.6-.8 1.2-.4 2.4-.9 3.4-1.4 1.1-.6 2.2-1.2 3.1-1.9 1-.7 1.8-1.7 2.6-2.6.7-.8 1.5-1.6 2.1-2.5.6-.9 1.1-1.9 1.5-2.9.3-1 .6-2.1.7-3.2.1-1-.5-2.1-.6-3.2-.1-1.2.1-2.5-.4-3.7-.4-1.1-.9-2.3-1.6-3.4-.6-1-1.4-2-2.2-3-.8-.9-1.9-1.5-2.8-2.4-.9-.8-1.7-1.7-2.8-2.4-1-.7-2.1-1.2-3.3-1.7-1.1-.5-2.2-1-3.4-1.4-1.2-.4-2.3-1-3.5-1.2-1.3-.1-2.6-.2-3.8-.2zM30.9 50.3c-1.2 0-2.5.3-3.7.1-1.2-.2-2.4-.7-3.5-1.1-1.2-.4-2.1-1.4-3.1-2-1.1-.6-2.2-1.1-3.2-1.8-.9-.8-1.8-1.7-2.6-2.6-.8-.9-1.3-2.1-1.9-3.1-.6-1.1-1.6-1.9-2-3.1-.4-1.1-.1-2.5-.4-3.7-.2-1.2-.4-2.4-.4-3.6 0-1.1.1-2.1.3-3.2.2-1.1.3-2.1.6-3.1.2-.5.7-.9 1.2-.7.5.2.7.7.6 1.3-.3.9-.2 1.9-.4 2.9-.1 1-.7 1.9-.7 2.9 0 1.3.5 2.5.7 3.7.2 1.2.2 2.6.6 3.7.5 1.2 1.4 2.1 2.1 3.1.7 1 1.5 2 2.4 2.9.9.9 1.9 1.6 2.9 2.3 1 .7 2.1 1.2 3.3 1.7 1.1.5 2.3 1 3.5 1.2 1.2.2 2.4.1 3.7.1 1.3 0 2.5.3 3.7.1 1.2-.2 2.3-1 3.4-1.5 1.2-.5 2.4-.8 3.4-1.5s1.9-1.6 2.8-2.5c.9-.9 1.5-1.9 2.2-3 .7-1 1.3-2.1 1.8-3.2s1-2.3 1.2-3.5c.2-1.2.1-2.4.1-3.7 0-1 .3-2 .1-2.9-.1-1-.3-1.9-.6-2.9-.2-.5 0-1.1.5-1.3.5-.2 1.4.1 1.5.7.3 1 0 2.2.2 3.3.2 1.1.6 2.1.6 3.2 0 1.2.1 2.5-.1 3.7-.2 1.2-.6 2.4-1.1 3.5-.4 1.2-1 2.3-1.6 3.3-.6 1.1-1.4 2.1-2.1 3-.8.9-1.5 2-2.4 2.8-.9.8-2 1.5-3 2.2-1.1.6-2.2 1.1-3.4 1.5-1.1.4-2.4.6-3.6.8-1.1.1-2.4 0-3.6 0z"/><path fill="#FF4B00" d="M30.9 23.8c-.4-.1-.8 1-1.5 2.2-.7 1.2-1.8 1.9-1.4 2.4.4.5 1.5 0 2.9 0s2.6.5 3 0c.4-.5-.8-1.2-1.2-2.6-.5-1.2-1.1-1.9-1.8-2z" opacity=".2"/><path fill="#FF4B00" d="M11.8 24c-1.4 0-2.8-.1-4.2-.4-.5-.1-1.2-.4-1.1-.9.1-.5.9-.5 1.4-.4 1.3.3 2.6 0 3.9 0 1.2 0 2.3 0 3.4-.2s2.3-.4 3.4-.8 2.1-1 3-1.6c1-.6 2.1-1 3-1.8.9-.8 1.3-1.9 2-2.9.7-.9 1.6-1.7 2.2-2.7.5-1 1.1-2.1 1.4-3.2.2-.5.6-1.2 1.1-1.1.5.2.5 1 .3 1.5-.4 1.2-.8 2.4-1.4 3.5-.6 1.1-1.2 2.2-2 3.2s-1.5 2.1-2.4 3c-1 .8-2.2 1.3-3.3 2-1.1.7-2.2 1.3-3.4 1.7-1.2.4-2.4.7-3.7 1-1 .3-2.3.1-3.6.1zM49.9 24.5c-1.3 0-2.6 0-3.8-.2-1.3-.2-2.4-.9-3.6-1.4-1.2-.4-2.4-.8-3.5-1.4-1.1-.7-2.1-1.4-3.1-2.2-.9-.8-1.6-2-2.3-3-.8-1-1.7-1.9-2.3-3-.6-1.1-.7-2.4-1.1-3.6-.2-.7-.2-.9.4-1.1.5-.2 1.2-.2 1.4.4.4 1.1.9 2.1 1.4 3.1.5 1 1.1 1.9 1.8 2.8.7.9 1.1 2.1 2 2.8.9.8 2 1.1 3 1.6 1 .6 1.8 1.5 2.9 1.9 1.1.4 2.2.6 3.4.8 1.1.2 2.3 0 3.4 0 1.3 0 2.6.2 3.9 0 .5-.1.9.2 1 .7.1.5 0 1.4-.6 1.5-1.4.3-2.9.3-4.3.3z"/></svg>