<svg xmlns="http://www.w3.org/2000/svg" width="80" height="80" viewBox="0 0 80 80"><path fill="#FF4B00" d="M39.888 79.924c-1.17 0-2.328.14-3.474.04-1.165-.1-2.265-.526-3.4-.726-1.15-.202-2.335-.153-3.448-.452-1.126-.302-2.244-.622-3.328-1.018-1.094-.4-2.047-1.107-3.094-1.597-1.053-.493-2.257-.685-3.258-1.266-1.005-.583-1.72-1.605-2.668-2.27-.95-.67-1.903-1.292-2.79-2.038-.888-.747-1.916-1.33-2.736-2.15s-1.53-1.74-2.276-2.63c-.745-.888-1.765-1.58-2.432-2.532-.665-.948-.97-2.143-1.553-3.15-.58-1-1.168-1.998-1.66-3.052-.49-1.048-.724-2.196-1.123-3.29-.396-1.085-.715-2.178-1.017-3.305-.3-1.114-.65-2.206-.85-3.356-.2-1.134-.612-2.248-.713-3.414-.1-1.146-.063-2.315-.063-3.487s.128-2.327.227-3.474c.102-1.166.328-2.298.528-3.433.202-1.15.24-2.328.54-3.443.3-1.127.9-2.15 1.295-3.236.4-1.095.433-2.342.923-3.39.493-1.053 1.172-2.027 1.753-3.028.582-1.006 1.234-1.977 1.9-2.926.666-.95 1.445-1.82 2.19-2.71.746-.888 1.683-1.59 2.503-2.412.82-.82 1.643-1.614 2.53-2.36.888-.747 1.502-1.862 2.452-2.53.947-.666 2.202-.868 3.207-1.45 1-.58 1.89-1.378 2.943-1.87 1.047-.49 2.085-1.054 3.178-1.453 1.084-.396 2.33-.307 3.454-.61 1.113-.3 2.168-.87 3.318-1.073 1.134-.2 2.288-.404 3.452-.505C37.547.23 38.717 0 39.887 0c1.172 0 2.343.24 3.488.34 1.165.1 2.31.35 3.444.55 1.15.2 2.235.64 3.348.938 1.126.302 2.157.82 3.242 1.215 1.094.4 2.372.335 3.42.825 1.052.494 2.15.948 3.152 1.53 1.005.582 2.01 1.22 2.957 1.885.95.668 1.874 1.414 2.76 2.16.89.747 1.685 1.628 2.505 2.45.82.82 1.243 2 1.99 2.89.744.888 1.485 1.754 2.152 2.705.665.948 1.325 1.883 1.908 2.89.58 1 1.102 2.02 1.595 3.073.49 1.05.984 2.085 1.383 3.18.396 1.084.56 2.23.862 3.356.3 1.114.792 2.176.994 3.327.198 1.135.205 2.293.306 3.458.1 1.147.604 2.29.604 3.46 0 1.172-.413 2.32-.513 3.468-.1 1.166.173 2.38-.027 3.516-.202 1.15-.94 2.18-1.24 3.296-.302 1.127-.244 2.365-.64 3.45-.4 1.095-.996 2.12-1.486 3.167-.493 1.054-1.116 2.042-1.697 3.044-.583 1.007-1.358 1.878-2.023 2.827-.667.95-1.066 2.11-1.81 2.997-.747.89-1.6 1.7-2.42 2.52-.82.82-1.83 1.434-2.72 2.18-.886.747-1.792 1.457-2.742 2.124-.947.666-1.836 1.426-2.84 2.01-1.002.58-2.19.785-3.243 1.28-1.048.49-1.923 1.39-3.016 1.79-1.084.397-2.18.842-3.307 1.144-1.113.3-2.306.343-3.455.545-1.134.2-2.307.14-3.472.242-1.146.096-2.29.094-3.462.094zm0-77.868c-1.18 0-2.35.245-3.502.35-1.173.11-2.383-.003-3.523.21-1.156.216-2.237.785-3.354 1.103-1.13.32-2.226.724-3.31 1.146-1.093.425-2.286.642-3.328 1.163-1.048.523-1.883 1.435-2.873 2.05-.995.62-2.234.895-3.164 1.6-.932.706-1.795 1.54-2.657 2.327-.864.788-1.51 1.81-2.297 2.675-.787.863-1.612 1.702-2.318 2.634-.704.93-1.042 2.105-1.66 3.1-.614.99-1.517 1.814-2.04 2.862-.52 1.042-.942 2.14-1.366 3.234-.422 1.085-1.013 2.133-1.335 3.263-.318 1.117-.616 2.273-.832 3.43-.213 1.14-.272 2.334-.38 3.508-.106 1.154.102 2.337.102 3.518 0 1.182-.033 2.35.073 3.503.108 1.174.193 2.346.406 3.486.216 1.156.41 2.322.73 3.44.32 1.13.9 2.172 1.323 3.257.425 1.094.662 2.274 1.182 3.317.523 1.048 1.482 1.848 2.097 2.84.618.994 1.145 2.03 1.85 2.96.705.933 1.426 1.843 2.213 2.706.787.864 1.55 1.75 2.413 2.538.862.787 1.63 1.708 2.564 2.414.93.704 1.925 1.355 2.92 1.973.99.615 2.252.74 3.3 1.263 1.04.52 1.9 1.456 2.992 1.88 1.083.423 2.288.52 3.417.84 1.116.32 2.267.467 3.422.683 1.14.214 2.234.83 3.407.94 1.153.105 2.342-.17 3.522-.17s2.333-.105 3.486-.21c1.173-.11 2.284-.446 3.424-.658 1.156-.216 2.316-.295 3.433-.614 1.13-.322 2.26-.6 3.344-1.023 1.093-.425 2.244-.727 3.285-1.248 1.048-.524 2.176-.948 3.166-1.564.994-.618 1.65-1.738 2.58-2.443.932-.706 1.744-1.52 2.606-2.308.863-.788 1.665-1.598 2.452-2.46s1.536-1.724 2.242-2.657c.704-.93 1.444-1.813 2.062-2.808.615-.99 1.612-1.778 2.136-2.827.52-1.042.95-2.158 1.375-3.252.422-1.085.75-2.23 1.073-3.36.318-1.116.6-2.27.814-3.426.213-1.14.318-2.322.426-3.496.106-1.154.35-2.334.35-3.515s-.307-2.355-.413-3.508c-.108-1.174-.128-2.365-.34-3.506-.217-1.157-.926-2.19-1.244-3.308-.322-1.13-.35-2.35-.77-3.434-.425-1.094-1.288-1.982-1.81-3.024-.523-1.048-.656-2.308-1.27-3.3-.62-.994-1.633-1.713-2.337-2.644-.707-.933-1.324-1.922-2.11-2.785-.787-.863-1.545-1.755-2.408-2.543-.862-.787-1.65-1.684-2.583-2.39-.93-.704-2.115-1.046-3.11-1.664-.99-.615-1.958-1.25-3.005-1.775-1.04-.52-2.017-1.207-3.11-1.633-1.083-.422-2.204-.79-3.333-1.11-1.116-.32-2.294-.43-3.45-.647-1.14-.213-2.258-.74-3.43-.85-1.157-.106-2.354-.052-3.534-.052z"/><path fill="#FF4B00" d="M39.925 28.906c-1.873-.453-.965 1.84-1.77 3.593-.805 1.75-2.718 2.047-1.743 3.71.926 1.58 2.088.124 3.92.124 1.834 0 1.834-.244 3.67-.244s2.337 1.237 3.736.05c1.186-1.008 1.202-2.29-.013-3.264-1.52-1.216-2 .297-3.944.297s-3.198 1.613-4.134-.094c-1.105-2.013 2.17-3.717.28-4.174z" opacity=".2"/><path fill="#FF4B00" d="M54.536 47.674c-1.634.86-1.71.025-3.558.025s-1.847.382-3.694.382-1.847-.36-3.694-.36-1.847.386-3.693.386c-1.847 0-1.847-.472-3.694-.472s-1.847.272-3.695.272c-1.85 0-1.85.343-3.7.343-1.852 0-1.967.36-3.605-.502-.86-.453-.952-1.3-.092-1.753 1.635-.86 1.843-.01 3.69-.01s1.847-.094 3.694-.094 1.847.073 3.694.073 1.847.106 3.693.106c1.848 0 1.848-.26 3.695-.26s1.847.374 3.695.374c1.85 0 1.85-.02 3.7-.02s1.847-.415 3.63.082c.915.256.796.975-.064 1.428zM63.704 54.92c.695.45 1.417-.93 2.734-1.713 1.316-.782 2.524-.866 2.524-1.575 0-.875-1.266-.693-2.583-1.475-1.317-.782-1.747-1.83-2.47-1.465-.91.46.316 1.435-.072 2.95-.45 1.75-.614 2.966-.134 3.278z"/><path fill="#FF4B00" d="M59.76 36.033c-1.15-1.32-1.78-.237-3.53-.237-1.75 0-1.75.263-3.498.263-1.75 0-1.75-.17-3.5-.17s-1.75.135-3.502.135c-1.75 0-1.75.22-3.5.22s-1.75-.443-3.5-.443-1.75.007-3.5.007c-1.752 0-1.752-.083-3.502-.083-1.753 0-1.753.48-3.507.48-1.752 0-2.442-1.548-3.6-.23-1.056 1.206.467 1.643.856 3.2.39 1.555.336 1.568.724 3.125.39 1.557.614 1.5 1.002 3.057.39 1.558.365 1.564.755 3.123.39 1.56-.68 2.244.607 3.204 1.364 1.017 1.74-.325 3.442-.325s1.7-.06 3.403-.06c1.698 0 1.698.29 3.398.29 1.7 0 1.7.28 3.402.28s1.7-.117 3.403-.117 1.702-.06 3.404-.06c1.705 0 1.705.097 3.41.097 1.704 0 2.22 1.1 3.588.083 1.286-.956.344-1.764.733-3.32s.247-1.592.636-3.148c.39-1.557.33-1.572.718-3.128.39-1.56.274-1.588 1.02-3.01.824-1.573 1.693-2.027.637-3.237zM33.188 26.02c.614-1.673 1.473-1.21 2.733-2.47 1.26-1.26 1.04-3.426 2.66-2.687 1.842.84.508 2.16.86 4.156s1.456 2.273.375 3.986c-.86 1.363-1.536-.187-3.147-.187-1.352 0-1.575 1.045-2.827.533-1.504-.616-1.165-1.933-.652-3.333z" opacity=".2"/><g fill="#FF4B00"><path d="M31.115 41.668c0 .723-.586 2.34-.64 1.65-.103-1.29-.31-1.748-.18-2.51.062-.37.712.07 1.408-.28.348-.173.43-.355.083-.53-.696-.347-1.125.115-1.52-.183-.244-.184.193-.846-.13-1.33-.216-.325-.49-.354-.706-.03-.324.486.22 1.26-.04 1.503-.294.272-.73-.085-1.427.263-.348.175-.51.395-.162.57.697.347 1.72-.626 1.836-.204.174.626.137 1.426-.055 2.87-.09.685-1.23-.976-1.23-1.7-.284-.264-.71-.19-.91.144 0 1.288 1.047 2.65 2.334 2.65 1.287 0 2.3-1.335 2.3-2.623-.2-.504-.674-.524-.96-.26zM65.5 51.13c-1.72-.562-1.775-.082-3.584-.082-1.81 0-1.81.025-3.62.025-1.385 0-1.713.103-2.604.15.083-.427.078-.945.14-1.738.138-1.802.082-1.786.52-3.54.437-1.75.72-1.68 1.158-3.43.437-1.75.302-1.785.74-3.536.437-1.75 1.337-2.918 1.026-3.733-.364-.954-1.983.034-3.69.034-1.71 0-1.71.45-3.417.45-1.535 0-1.7-.136-2.958-.163-.033-.346-.177-.755-.312-1.323h.23c1.7 0 2.415.236 3.238-.514.617-.562.45-1.284.16-2.73-.29-1.432.46-2.152-.123-2.776-.78-.835-1.58.04-3.283.04h-.28c-.056-.062-.118-.126-.198-.193-1.37-1.144-1.792-.17-3.577-.17-.622 0-1.022.04-1.36.086-.344-.1-.744-.184-1.393-.184-.52 0-.924-.094-1.283-.192.046-.16-.257-.38-.7-1.68-.522-1.535-.21-1.652-.49-3.247-.28-1.593.154-2.363-.56-3.087-.75-.757-1.896-.06-3.87-.06s-3.32-.712-3.84.064c-.445.662.34 1.448.62 3.044s-.03 1.65.25 3.246c.188 1.058-.22 1.802-.128 2.455-.37-.002-.795-.004-1.506-.004-1.782 0-3.13-.952-3.7-.423-.707.66.012 1.654.012 3.148 0 1.493.022 1.493.022 2.986 0 .558-.13.964-.236 1.304-.552.15-.956.347-2.003.347-1.703 0-2.648-1.172-3.353-.214-.524.713.64 1.65 1.077 3.405.438 1.755.184 1.818.622 3.572.437 1.75.416 1.757.854 3.507.416 1.667.562 1.732.953 3.246.007.43.03.812.174 1.212-.002.344-.04.637-.054.9-1.222-.062-1.425-.303-2.998-.303-1.805 0-1.805.093-3.61.093-.82 0-1.39-.048-1.89-.1.26-1.17.306-1.97-.29-2.24-1.014-.462-1.453.725-2.77 1.508-1.315.782-2.697.972-2.697 1.707 0 .673 1.558.628 2.874 1.41s1.796 2.38 2.67 1.937c.614-.31-.08-1.372-.096-2.6.572-.036 1.15-.037 2.212-.037 1.81 0 1.81.387 3.62.387 1.79 0 1.81-.41 3.57-.417.062.055.125.11.2.168 1.416 1.11 1.7.328 3.5.328s1.8-.146 3.6-.146c1.314 0 1.67.072 2.47.11.29.05.637.082 1.11.082.5 0 .858-.018 1.158-.042.782.023 1.145.064 2.447.064 1.795 0 1.795-.204 3.59-.204.494 0 .846-.024 1.143-.058.82.01 1.173.026 2.504.026 1.804 0 1.804-.142 3.61-.142h.782c1.062.256 1.474.846 2.593-.01h.236c1.805 0 1.805.29 3.61.29s1.805-.254 3.61-.254c1.803 0 2.497.425 3.594.06.922-.308.99-1.48-.025-1.813zM50.656 29.91c.75.62.24 1.952.24 1.952-1.033.478-1.932.304-3.553.304-1.622 0-1.664-.205-3.286-.205-1.62 0-2.54.566-3.323.225-.892-.388-.716-2.036-.2-2.333 1.403-.812 1.95.394 3.57.394 1.623 0 1.623-.025 3.244-.025 1.618 0 2.666-.843 3.307-.31zM33.67 21.296c.502-.742 3.644-.77 4.334-.096.614.6-.318 1.7-.067 3.12.25 1.42 1.92 1.887.808 2.8-1.527 1.256-2.18.862-3.846-.2-1.215-.775-.81-1.195-.78-2.656.028-1.44-.935-2.247-.45-2.967zM29.05 29.79c.88-.713 1.895-.028 3.647-.028 1.753 0 1.753.474 3.505.474 1.273 0 1.634-.045 2.403-.07.065.25.117.52.117.833 0 1.46-.15 2.39.284 2.816.652.638 1.615.185 3.32.185s1.702.245 3.406.245h1.256c-.14.224-.294.458-.472.715-.25.36-.47.554-.692.644h-.742c-.475-.13-1.045-.408-1.89-.408-1.752 0-1.752.094-3.504.094-1.75 0-1.75-.542-3.5-.542s-1.748.04-3.497.04c-.794 0-1.416.38-1.952.662-.638-.068-.983-.19-1.71-.24 0-.003-.002-.005-.004-.007-1.44-2.082-.977-4.602.024-5.413zM54.92 44.242c-.36 1.446-.39 1.68-.65 2.757l-27.617.028c-.2-1.176-.865-1.266-1.238-2.758-.425-1.702-.26-1.743-.687-3.445-.425-1.7-1.395-2.898-.862-3.53.477-.565 1.932.048 3.74.048h.396c.702.345 1.163.087 2.07-.035.3-.005.654-.008 1.153-.008 1.806 0 1.806.14 3.613.14 1.806 0 1.806-.093 3.612-.093s1.806.314 3.61.314c1.053 0 1.495-.174 2.035-.32.265-.004.572-.006.98-.006 1.504 0 1.948.48 2.868-.054.337.028.734.05 1.342.05 1.806 0 1.806-.196 3.612-.196 1.805 0 3.356-.398 3.61.263.27.697-.446 1.7-.872 3.405-.423 1.7-.288 1.735-.714 3.44zM31.69 34.163c.538 0 .943-.32.943-.857s-.405-1.083-.942-1.083c-.536 0-1.142.546-1.142 1.083 0 .538.605.857 1.143.857zM34.803 34.402c.537 0 1.135-.558 1.135-1.095 0-.538-.598-.984-1.135-.984s-1.11.446-1.11.984c0 .537.573 1.095 1.11 1.095zM43 39.105c-.536 0-1.14.312-1.14.85 0 .537.604.946 1.14.946s1.058-.408 1.058-.946-.52-.85-1.057-.85zM46.113 39.222c-.537 0-1.192.195-1.192.732 0 .538.656.848 1.193.848s1.05-.31 1.05-.848-.513-.732-1.05-.732z"/></g><g fill="#FF4B00"><path d="M24.056 62.774l-5.204 2.53c-.252.128-.568.082-.79-.105-.318-.273-.32-.72-.085-.995.058-.068.132-.124.22-.166l4.44-2.145-2.132-1.816c-.26-.22-.29-.616-.057-.89.214-.252.608-.283.867-.062l2.908 2.477c.267.228.33.677.06.996-.065.076-.145.14-.227.174zM23.96 67.097l-1.235-.775c-.246-.153-.32-.484-.157-.747.154-.245.485-.32.73-.167l1.236.775c.246.153.32.484.168.73-.165.262-.495.338-.74.184zM26.49 70.576c-.346-.16-.5-.586-.34-.93l1.775-3.808-1.005.382c-.146.053-.295.04-.422-.02-.28-.132-.425-.485-.285-.785.063-.136.182-.246.34-.305l2.056-.763c.2-.072.437-.062.645.036.408.19.6.677.41 1.085l-2.228 4.776c-.16.346-.585.5-.948.332zM33.19 72.707l-3.728-.995c-.338-.09-.572-.453-.47-.84.06-.222.226-.415.445-.5 2.88-1.137 3.84-1.636 4.04-2.39.15-.56-.286-.976-.817-1.118-.512-.137-.995-.11-1.43.043-.148.054-.284.06-.43.02-.317-.085-.525-.43-.433-.777.025-.097.08-.186.16-.257.44-.41 1.616-.47 2.428-.253 1.372.366 2.257 1.43 1.914 2.715-.295 1.102-1.458 1.815-3.454 2.586l2.096.56c.318.086.517.43.432.748-.092.346-.435.545-.753.46zM41.364 73.295l-1.826.098c-.44.023-.817-.316-.84-.756l-.272-5.06c-.023-.438.317-.817.756-.84l1.826-.1c2.086-.11 3.604 1.14 3.71 3.146s-1.268 3.4-3.354 3.512zm-.29-5.408l-1.207.064.223 4.162 1.208-.064c1.316-.07 2.034-1.06 1.975-2.188-.064-1.177-.83-2.046-2.198-1.973zM51.44 71.41c-.288.084-.607-.01-.794-.258l-.45-.618-2.745.798-.058.767c-.024.31-.243.56-.54.645-.433.126-.826-.155-.933-.52-.026-.087-.04-.176-.028-.273l.473-5.353c.037-.48.386-.895.837-1.025.48-.18 1.052-.035 1.37.382l3.262 4.267c.054.078.098.16.123.245.103.354-.076.812-.518.94zM47.67 66.98l-.196 3.045 1.996-.58-1.8-2.465zM55.097 63.15l-.293 3.546.985 1.844c.18.335.047.768-.306.957-.335.18-.77.047-.947-.288l-.985-1.844-3.135-1.727c-.108-.057-.19-.148-.248-.254-.152-.282-.06-.705.292-.894.194-.104.45-.115.662.01l2.46 1.417.165-2.81c.015-.248.15-.457.363-.57.36-.193.75-.038.906.253.056.106.087.226.077.356zM61.225 65.685c-.743.623-1.868 1.148-2.505.965-.118-.03-.226-.098-.303-.19-.244-.29-.17-.717.09-.935.1-.084.226-.15.36-.16.545-.052 1.116-.257 1.614-.675.6-.5.658-1.02.414-1.312-.758-.904-3.18 2.184-4.792.26-.713-.85-.568-2.17.635-3.18.582-.488 1.63-1.042 2.23-.904.124.025.23.092.31.184.243.29.127.728-.134.946-.092.077-.203.13-.34.154-.52.097-.994.34-1.37.653-.467.394-.554.818-.297 1.125.68.812 3.158-2.192 4.758-.285.785.935.71 2.2-.67 3.355z"/></g><g fill="#FF4B00"><path d="M10.77 39.238l-.028 1.7 1.73.027c.38.007.693.332.687.73-.008.38-.333.695-.713.69l-5.227-.088c-.44-.008-.794-.374-.786-.813l.04-2.318c.023-1.45 1.016-2.223 2.186-2.203 1.16.02 2.134.835 2.11 2.275zm-3.05.138l-.026 1.51 1.8.03.024-1.51c.01-.56-.334-.985-.883-.995-.56-.007-.907.407-.916.966zM11.698 32.097l1.73-.532c.12-.033.243-.034.35-.01.33.08.616.436.52.844-.06.242-.238.436-.492.51l-2.276.627-.24 1.01 1.68.402c.37.087.607.473.515.86-.09.37-.474.606-.843.52l-5.084-1.214c-.428-.103-.693-.535-.592-.963l.538-2.255c.322-1.352 1.404-1.967 2.61-1.68 1.145.275 1.586 1.14 1.584 1.88zM8.323 33.84l1.75.417.346-1.448c.13-.555-.1-1.052-.644-1.182-.545-.13-.975.21-1.107.763l-.347 1.45zM15.246 29.927c-.146.35-.564.52-.915.375l-4.967-2.08c-.35-.147-.52-.565-.367-.935.146-.35.565-.52.915-.375l4.97 2.08c.35.148.52.567.366.935zM18.598 23.978c-.146.227-.402.383-.688.4l-5.007.284 3.113 2.016c.32.206.414.648.196.984-.206.318-.648.413-.968.207l-4.347-2.815c-.395-.255-.547-.83-.26-1.274.164-.25.444-.427.752-.44l4.78-.288-2.978-1.93c-.32-.205-.414-.647-.196-.983.206-.32.648-.414.968-.208l4.39 2.84c.378.245.52.778.244 1.206zM19.098 15.585l-1 .963 3.304 3.436c.27.28.262.732-.026 1.01-.28.27-.733.262-1.004-.02l-3.304-3.436-1 .963c-.246.236-.642.23-.892-.03-.23-.237-.22-.634.024-.87l3.032-2.915c.237-.23.633-.22.875.03.237.245.23.642-.01.87zM27.288 16.54l-2.854 1.796c-.372.234-.87.12-1.104-.252l-2.7-4.293c-.234-.372-.12-.868.252-1.103l2.854-1.795c.28-.176.666-.088.853.21.18.287.092.673-.188.85l-2.33 1.464.752 1.193 2.27-1.428c.28-.176.666-.088.853.21.18.286.093.673-.187.85l-2.27 1.426.804 1.28 2.33-1.466c.278-.176.665-.088.84.192.19.305.104.69-.176.867zM30.903 15.02l-1.73.594c-.417.144-.874-.08-1.018-.497l-1.647-4.796c-.144-.415.08-.873.497-1.016l1.73-.596c1.978-.68 3.78.108 4.435 2.01s-.29 3.62-2.267 4.3zM29.14 9.89l-1.144.395 1.355 3.945 1.146-.394c1.25-.43 1.67-1.578 1.302-2.646-.384-1.117-1.36-1.744-2.657-1.3zM42.3 12.998c-.005.29-.25.585-.58.58-.34-.006-.652-.41-.8-.583-.506.37-1.12.6-1.83.59-1.218-.022-2.187-.678-2.165-1.967.017-1.01.695-1.528 1.46-1.896-.25-.494-.422-.996-.414-1.446.016-.9.827-1.586 1.937-1.567.94.015 1.74.55 1.726 1.437-.018 1.02-.844 1.436-1.67 1.802.43.606.773.992 1.116 1.418.173-.258.327-.545.452-.822.083-.188.285-.315.495-.312.31.005.545.27.54.55 0 .08-.032.178-.084.297-.156.35-.504.813-.72 1.09.217.242.543.478.537.828zm-3.012-.412c.34.006.67-.118.965-.323-.736-.832-.96-1.136-1.38-1.753-.354.244-.59.55-.598 1.01-.01.65.463 1.058 1.013 1.066zm-.05-4.26c-.004.272.11.583.275.906.564-.26 1.01-.543 1.018-1.033.007-.35-.25-.564-.58-.57-.39-.007-.704.288-.71.697zM48.03 14.866c-.923-.296-1.968-.967-2.152-1.604-.036-.117-.037-.243 0-.357.115-.36.515-.527.84-.424.122.04.247.112.327.222.334.433.812.807 1.432 1.005.742.237 1.214.01 1.33-.35.36-1.125-3.544-1.525-2.777-3.915.34-1.057 1.533-1.64 3.028-1.16.724.23 1.752.823 1.954 1.402.046.12.048.246.01.36-.115.362-.547.497-.87.393-.114-.036-.22-.102-.312-.205-.358-.388-.817-.66-1.283-.81-.58-.187-.987-.033-1.11.348-.322 1.01 3.54 1.502 2.78 3.873-.373 1.16-1.482 1.772-3.196 1.223zM55.655 18.56c-.334-.202-.442-.642-.24-.976l1.112-1.84-2.697-1.63-1.117 1.85c-.196.325-.636.434-.98.227-.324-.195-.433-.635-.235-.96l2.788-4.614c.196-.325.636-.434.978-.227.326.195.435.635.237.96l-1.023 1.695 2.697 1.63 1.023-1.695c.197-.325.637-.435.987-.222.325.196.434.636.237.96l-2.782 4.606c-.2.335-.64.443-.983.236zM57.502 20.17c-.285-.25-.314-.7-.063-.986L61 15.137c.25-.285.703-.314 1.003-.05.285.25.314.703.063.988l-3.562 4.046c-.25.287-.702.316-1.002.05zM62.758 22.18l-1.084-1.31-1.334 1.104c-.292.242-.743.2-.998-.108-.242-.293-.2-.743.093-.985l4.03-3.335c.34-.28.846-.233 1.127.106l1.48 1.788c.924 1.117.673 2.352-.23 3.098-.893.74-2.166.755-3.084-.355zm2.23-2.09l-.964-1.165-1.387 1.148.963 1.163c.357.432.895.532 1.318.182.432-.357.426-.897.07-1.33zM66.15 27.6l-.772-1.515-1.54.787c-.34.173-.77.033-.952-.323-.173-.34-.033-.77.305-.943l4.662-2.378c.392-.2.876-.044 1.076.35l1.055 2.066c.66 1.292.146 2.44-.896 2.974-1.036.527-2.282.264-2.936-1.02zm2.63-1.556l-.686-1.346-1.604.818.687 1.346c.255.5.758.715 1.247.464.5-.253.612-.783.357-1.282zM66.248 35.244l-.858-3.26c-.112-.427.145-.866.57-.98l4.904-1.29c.426-.113.866.144.978.57l.86 3.26c.083.318-.116.66-.455.75-.33.087-.67-.113-.755-.433l-.7-2.66-1.365.36.683 2.593c.085.32-.115.66-.453.75-.33.087-.672-.112-.756-.432l-.682-2.592-1.46.385.7 2.66c.084.32-.116.662-.435.746-.348.092-.69-.107-.775-.426zM66.628 39.16l-.054-1.828c-.013-.44.337-.81.776-.822l5.067-.147c.44-.013.81.337.823.776l.053 1.828c.06 2.09-1.227 3.577-3.235 3.635-2.008.058-3.37-1.353-3.43-3.442zm5.417-.157l-.035-1.21-4.168.122.035 1.21c.038 1.318 1.01 2.06 2.14 2.027 1.18-.033 2.067-.78 2.028-2.15z"/></g></svg>