<svg xmlns="http://www.w3.org/2000/svg" width="50" height="35" viewBox="0 0 50 35"><path fill="#E94F1E" d="M37.2 0l-.1.4v2.8c0 .5 0 1.1-.1 1.7v1.8l-.2.9c-.1.3-.1.5-.2.8 0 .1-.1.3-.1.4-.4 1.1-.6 1.7-.8 2l-.1.2c-.4.8-.8 1.4-1.1 2l-.6 1c-.4.6-.8 1.3-1.3 2l-1.2 1.6 1.8-.9c1-.5 1.8-1 2.6-1.8.9-.8 1.5-1.7 2.1-2.8l.1-.2c.1-.2.2-.5.4-.9l.1 1.3c0 .6.1 1.7 0 3.4 0 .6-.1 1.2-.2 1.9-.4 2.6-1.7 6.3-4.1 8.7-.1.1-.2.3-.4.4l-.6.6-1 .8c-.1.1-.2.2-.4.3-.2.1-.3.3-.5.4l-.9.6c-.3.2-.7.4-.9.5-.1.1-.2.1-.3.2l-.5.3s-.2.1-.5.3l-.2-.1c-.3.2-.7.4-1.2.5-1 .4-3 1.1-5.4 1.2-2 .2-4.4-.1-6.6-.7-2.4-.7-4.4-1.7-5.3-2.3-1-.5-1.5-.9-1.9-1.1l-.2-.2c-1.5-1-2.6-1.7-3.8-2.4-.4-.3-.9-.5-1.4-.8l-1.7-1 1 1.7c1.1 1.8 2.1 3.1 4.3 4.7l.2.1c.4.3 1 .7 2.1 1.3 1 .6 3.2 1.7 5.9 2.5 2.5.7 5.2 1 7.5.8 2.8-.2 5-.9 6.1-1.4.6-.2 1.1-.4 1.4-.6l.3-.2c.4-.2.6-.3.7-.3l.5-.3c.1-.1.2-.1.3-.2.3-.2.7-.4 1.1-.6l.9-.6c.2-.2.5-.3.7-.5.1-.1.2-.2.4-.3L35 29c.3-.2.5-.5.7-.8.1-.1.2-.3.3-.4.7-.7 1.3-1.5 1.8-2.3l.3-.4c.2-.3.4-.7.6-1 .1-.2.2-.3.3-.5l.1-.3.3-.6.3-.8c.4-1 .6-1.9.9-2.9l.1-.4.1-.6c.1-.8.3-1.6.3-2.4.1-1.9 0-3 0-3.8v-.2l-.3-2.1 1 1 .7.7.7.5c.5.3.9.6 1.4.9.8.4 1.7.7 2.6 1l2.1.7-1.4-1.4c-.8-.8-1.5-1.4-2.1-2-.3-.3-.7-.7-1.1-1l-2.1-2c-.1-.2-.3-.3-.5-.5-.3-.3-.6-.7-1-1.2l-.5-.7c-.2-.3-.5-.7-.7-1.2.2-.1.1-.3 0-.5-.5-.9-1-2-1.3-2.6L38 0h-.8zM37.5.1l-.1.4v2.7c0 .5 0 1.1-.1 1.7l-.1 1.6v.2l-.2.9c-.1.3-.1.5-.2.7 0 .1-.1.3-.1.4-.4 1.1-.6 1.6-.8 2l-.1.2c-.4.8-.8 1.4-1.1 2l-.6 1c-.4.6-.8 1.3-1.3 2l-1.2 1.6 1.9-.9c1-.5 1.8-1 2.7-1.8.9-.8 1.6-1.7 2.1-2.8l.1-.2c.1-.2.2-.5.4-.9l.1 1.3c0 .6.1 1.7 0 3.3 0 .6-.1 1.2-.2 1.8-.4 2.6-1.8 6.3-4.2 8.6l-.4.4-.6.6-1 .8c-.1.1-.2.2-.4.3-.2.1-.4.3-.5.4l-.9.6c-.3.2-.7.4-.9.5-.1.1-.2.1-.3.2l-.5.3-.6.3-.4.3c-.3.2-.8.4-1.3.5-1 .4-3 1-5.5 1.2-2.1.2-4.5-.1-6.7-.7-2.5-.7-4.5-1.7-5.4-2.2-1-.5-1.5-.9-1.9-1.1L7 28c-1.5-1-2.6-1.7-3.9-2.4-.4-.3-.9-.5-1.4-.8l-1.7-1 1 1.7c1.1 1.8 2.1 3.1 4.4 4.7l.2.1c.4.3 1 .7 2.1 1.3 1.1.6 3.3 1.7 6 2.5 2.6.7 5.3 1 7.7.8 2.8-.2 5.2-.9 6.3-1.4.6-.2 1.1-.4 1.5-.6l.3-.2c.4-.2.7-.3.7-.3l.5-.3c.1-.1.2-.1.3-.2.3-.2.7-.4 1.1-.6l.9-.6c.2-.2.5-.3.7-.5.1-.1.2-.2.4-.3l1.1-.9c.3-.2.5-.5.8-.8.1-.1.2-.3.4-.4.7-.7 1.3-1.5 1.9-2.3l.3-.4c.2-.3.4-.7.6-1 .1-.2.2-.3.3-.5l.1-.3.3-.6.3-.8c.4-1 .7-1.9.9-2.9l.1-.4.1-.6c.1-.8.3-1.6.3-2.4.1-1.8 0-3 0-3.7v-.2c-.1-.7-.2-1.4-.3-2l1.1 1c.2.2.5.4.8.7l.7.5c.5.3.9.6 1.4.9.9.4 1.8.7 2.7 1l2.2.7-1.4-1.4c-.8-.8-1.5-1.4-2.1-2-.3-.3-.7-.7-1.1-1l-2.1-2c-.1-.2-.3-.3-.5-.5-.3-.3-.6-.7-1-1.2l-.5-.7c-.2-.3-.5-.7-.7-1.2l-.3-.6c-.5-.9-1.1-2-1.4-2.6L38.2 0l-.7.1z"/></svg>